<?xml version="1.0" encoding="utf-8"?>
<svg xmlns="http://www.w3.org/2000/svg" xmlns:xlink="http://www.w3.org/1999/xlink" width="600" height="400" viewBox="0 0 2400 1600">
<defs>
  <clipPath id="clip120">
    <rect x="0" y="0" width="2400" height="1600"/>
  </clipPath>
</defs>
<path clip-path="url(#clip120)" d="M0 1600 L2400 1600 L2400 0 L0 0  Z" fill="#ffffff" fill-rule="evenodd" fill-opacity="1"/>
<defs>
  <clipPath id="clip121">
    <rect x="480" y="0" width="1681" height="1600"/>
  </clipPath>
</defs>
<path clip-path="url(#clip120)" d="M321.981 1320.16 L2289.76 1320.16 L2289.76 110.236 L321.981 110.236  Z" fill="#ffffff" fill-rule="evenodd" fill-opacity="1"/>
<defs>
  <clipPath id="clip122">
    <rect x="321" y="110" width="1969" height="1211"/>
  </clipPath>
</defs>
<polyline clip-path="url(#clip122)" style="stroke:#000000; stroke-linecap:round; stroke-linejoin:round; stroke-width:2; stroke-opacity:0.1; fill:none" points="996.473,1320.16 996.473,110.236 "/>
<polyline clip-path="url(#clip122)" style="stroke:#000000; stroke-linecap:round; stroke-linejoin:round; stroke-width:2; stroke-opacity:0.1; fill:none" points="2234.07,1320.16 2234.07,110.236 "/>
<polyline clip-path="url(#clip122)" style="stroke:#000000; stroke-linecap:round; stroke-linejoin:round; stroke-width:2; stroke-opacity:0.1; fill:none" points="996.473,1320.16 996.473,110.236 "/>
<polyline clip-path="url(#clip122)" style="stroke:#000000; stroke-linecap:round; stroke-linejoin:round; stroke-width:2; stroke-opacity:0.1; fill:none" points="2234.07,1320.16 2234.07,110.236 "/>
<polyline clip-path="url(#clip122)" style="stroke:#000000; stroke-linecap:round; stroke-linejoin:round; stroke-width:2; stroke-opacity:0.1; fill:none" points="321.981,1320.16 2289.76,1320.16 "/>
<polyline clip-path="url(#clip122)" style="stroke:#000000; stroke-linecap:round; stroke-linejoin:round; stroke-width:2; stroke-opacity:0.1; fill:none" points="321.981,1078.18 2289.76,1078.18 "/>
<polyline clip-path="url(#clip122)" style="stroke:#000000; stroke-linecap:round; stroke-linejoin:round; stroke-width:2; stroke-opacity:0.1; fill:none" points="321.981,836.192 2289.76,836.192 "/>
<polyline clip-path="url(#clip122)" style="stroke:#000000; stroke-linecap:round; stroke-linejoin:round; stroke-width:2; stroke-opacity:0.1; fill:none" points="321.981,594.207 2289.76,594.207 "/>
<polyline clip-path="url(#clip122)" style="stroke:#000000; stroke-linecap:round; stroke-linejoin:round; stroke-width:2; stroke-opacity:0.1; fill:none" points="321.981,352.222 2289.76,352.222 "/>
<polyline clip-path="url(#clip122)" style="stroke:#000000; stroke-linecap:round; stroke-linejoin:round; stroke-width:2; stroke-opacity:0.1; fill:none" points="321.981,110.236 2289.76,110.236 "/>
<polyline clip-path="url(#clip122)" style="stroke:#000000; stroke-linecap:round; stroke-linejoin:round; stroke-width:2; stroke-opacity:0.1; fill:none" points="321.981,1320.16 2289.76,1320.16 "/>
<polyline clip-path="url(#clip122)" style="stroke:#000000; stroke-linecap:round; stroke-linejoin:round; stroke-width:2; stroke-opacity:0.1; fill:none" points="321.981,1078.18 2289.76,1078.18 "/>
<polyline clip-path="url(#clip122)" style="stroke:#000000; stroke-linecap:round; stroke-linejoin:round; stroke-width:2; stroke-opacity:0.1; fill:none" points="321.981,836.192 2289.76,836.192 "/>
<polyline clip-path="url(#clip122)" style="stroke:#000000; stroke-linecap:round; stroke-linejoin:round; stroke-width:2; stroke-opacity:0.1; fill:none" points="321.981,594.207 2289.76,594.207 "/>
<polyline clip-path="url(#clip122)" style="stroke:#000000; stroke-linecap:round; stroke-linejoin:round; stroke-width:2; stroke-opacity:0.1; fill:none" points="321.981,352.222 2289.76,352.222 "/>
<polyline clip-path="url(#clip122)" style="stroke:#000000; stroke-linecap:round; stroke-linejoin:round; stroke-width:2; stroke-opacity:0.1; fill:none" points="321.981,110.236 2289.76,110.236 "/>
<polyline clip-path="url(#clip120)" style="stroke:#000000; stroke-linecap:round; stroke-linejoin:round; stroke-width:4; stroke-opacity:1; fill:none" points="321.981,1320.16 2289.76,1320.16 "/>
<polyline clip-path="url(#clip120)" style="stroke:#000000; stroke-linecap:round; stroke-linejoin:round; stroke-width:4; stroke-opacity:1; fill:none" points="321.981,110.236 2289.76,110.236 "/>
<polyline clip-path="url(#clip120)" style="stroke:#000000; stroke-linecap:round; stroke-linejoin:round; stroke-width:4; stroke-opacity:1; fill:none" points="996.473,1320.16 996.473,1301.27 "/>
<polyline clip-path="url(#clip120)" style="stroke:#000000; stroke-linecap:round; stroke-linejoin:round; stroke-width:4; stroke-opacity:1; fill:none" points="2234.07,1320.16 2234.07,1301.27 "/>
<polyline clip-path="url(#clip120)" style="stroke:#000000; stroke-linecap:round; stroke-linejoin:round; stroke-width:4; stroke-opacity:1; fill:none" points="996.473,110.236 996.473,129.134 "/>
<polyline clip-path="url(#clip120)" style="stroke:#000000; stroke-linecap:round; stroke-linejoin:round; stroke-width:4; stroke-opacity:1; fill:none" points="2234.07,110.236 2234.07,129.134 "/>
<path clip-path="url(#clip120)" d="M945.132 1421.75 L956.59 1421.75 L956.59 1382.2 L944.125 1384.7 L944.125 1378.31 L956.521 1375.81 L963.535 1375.81 L963.535 1421.75 L974.993 1421.75 L974.993 1427.65 L945.132 1427.65 L945.132 1421.75 Z" fill="#000000" fill-rule="nonzero" fill-opacity="1" /><path clip-path="url(#clip120)" d="M1004.16 1380.43 Q998.743 1380.43 996 1385.78 Q993.291 1391.09 993.291 1401.78 Q993.291 1412.44 996 1417.79 Q998.743 1423.1 1004.16 1423.1 Q1009.61 1423.1 1012.32 1417.79 Q1015.06 1412.44 1015.06 1401.78 Q1015.06 1391.09 1012.32 1385.78 Q1009.61 1380.43 1004.16 1380.43 M1004.16 1374.88 Q1012.87 1374.88 1017.46 1381.79 Q1022.08 1388.66 1022.08 1401.78 Q1022.08 1414.88 1017.46 1421.78 Q1012.87 1428.66 1004.16 1428.66 Q995.444 1428.66 990.826 1421.78 Q986.243 1414.88 986.243 1401.78 Q986.243 1388.66 990.826 1381.79 Q995.444 1374.88 1004.16 1374.88 Z" fill="#000000" fill-rule="nonzero" fill-opacity="1" /><path clip-path="url(#clip120)" d="M1028.93 1381.74 L1048.82 1381.74 L1048.82 1386.54 L1022.08 1386.54 L1022.08 1381.74 Q1025.32 1378.38 1030.91 1372.74 Q1036.52 1367.07 1037.96 1365.43 Q1040.7 1362.36 1041.77 1360.24 Q1042.87 1358.1 1042.87 1356.04 Q1042.87 1352.68 1040.5 1350.57 Q1038.16 1348.45 1034.38 1348.45 Q1031.7 1348.45 1028.71 1349.38 Q1025.74 1350.31 1022.36 1352.2 L1022.36 1346.45 Q1025.8 1345.07 1028.79 1344.36 Q1031.78 1343.66 1034.26 1343.66 Q1040.81 1343.66 1044.7 1346.93 Q1048.59 1350.2 1048.59 1355.67 Q1048.59 1358.27 1047.61 1360.61 Q1046.65 1362.92 1044.08 1366.08 Q1043.38 1366.9 1039.6 1370.82 Q1035.82 1374.72 1028.93 1381.74 Z" fill="#000000" fill-rule="nonzero" fill-opacity="1" /><path clip-path="url(#clip120)" d="M2180.76 1421.75 L2192.21 1421.75 L2192.21 1382.2 L2179.75 1384.7 L2179.75 1378.31 L2192.14 1375.81 L2199.16 1375.81 L2199.16 1421.75 L2210.62 1421.75 L2210.62 1427.65 L2180.76 1427.65 L2180.76 1421.75 Z" fill="#000000" fill-rule="nonzero" fill-opacity="1" /><path clip-path="url(#clip120)" d="M2239.78 1380.43 Q2234.37 1380.43 2231.62 1385.78 Q2228.92 1391.09 2228.92 1401.78 Q2228.92 1412.44 2231.62 1417.79 Q2234.37 1423.1 2239.78 1423.1 Q2245.23 1423.1 2247.94 1417.79 Q2250.69 1412.44 2250.69 1401.78 Q2250.69 1391.09 2247.94 1385.78 Q2245.23 1380.43 2239.78 1380.43 M2239.78 1374.88 Q2248.5 1374.88 2253.08 1381.79 Q2257.7 1388.66 2257.7 1401.78 Q2257.7 1414.88 2253.08 1421.78 Q2248.5 1428.66 2239.78 1428.66 Q2231.07 1428.66 2226.45 1421.78 Q2221.87 1414.88 2221.87 1401.78 Q2221.87 1388.66 2226.45 1381.79 Q2231.07 1374.88 2239.78 1374.88 Z" fill="#000000" fill-rule="nonzero" fill-opacity="1" /><path clip-path="url(#clip120)" d="M2276.71 1349.38 L2262.33 1371.87 L2276.71 1371.87 L2276.71 1349.38 M2275.22 1344.42 L2282.39 1344.42 L2282.39 1371.87 L2288.39 1371.87 L2288.39 1376.61 L2282.39 1376.61 L2282.39 1386.54 L2276.71 1386.54 L2276.71 1376.61 L2257.7 1376.61 L2257.7 1371.11 L2275.22 1344.42 Z" fill="#000000" fill-rule="nonzero" fill-opacity="1" /><path clip-path="url(#clip120)" d="M1134.43 1473.84 L1134.43 1484.88 L1147.59 1484.88 L1147.59 1489.84 L1134.43 1489.84 L1134.43 1510.96 Q1134.43 1515.71 1135.72 1517.07 Q1137.04 1518.42 1141.03 1518.42 L1147.59 1518.42 L1147.59 1523.77 L1141.03 1523.77 Q1133.63 1523.77 1130.82 1521.03 Q1128.01 1518.25 1128.01 1510.96 L1128.01 1489.84 L1123.32 1489.84 L1123.32 1484.88 L1128.01 1484.88 L1128.01 1473.84 L1134.43 1473.84 Z" fill="#000000" fill-rule="nonzero" fill-opacity="1" /><path clip-path="url(#clip120)" d="M1171.06 1489.36 Q1165.93 1489.36 1162.94 1493.39 Q1159.95 1497.38 1159.95 1504.36 Q1159.95 1511.34 1162.9 1515.37 Q1165.89 1519.36 1171.06 1519.36 Q1176.17 1519.36 1179.15 1515.33 Q1182.14 1511.3 1182.14 1504.36 Q1182.14 1497.45 1179.15 1493.42 Q1176.17 1489.36 1171.06 1489.36 M1171.06 1483.94 Q1179.4 1483.94 1184.15 1489.36 Q1188.91 1494.78 1188.91 1504.36 Q1188.91 1513.91 1184.15 1519.36 Q1179.4 1524.78 1171.06 1524.78 Q1162.7 1524.78 1157.94 1519.36 Q1153.22 1513.91 1153.22 1504.36 Q1153.22 1494.78 1157.94 1489.36 Q1162.7 1483.94 1171.06 1483.94 Z" fill="#000000" fill-rule="nonzero" fill-opacity="1" /><path clip-path="url(#clip120)" d="M1224.29 1486.03 L1224.29 1492.07 Q1221.58 1490.68 1218.67 1489.98 Q1215.75 1489.29 1212.63 1489.29 Q1207.87 1489.29 1205.47 1490.75 Q1203.11 1492.21 1203.11 1495.12 Q1203.11 1497.34 1204.81 1498.63 Q1206.52 1499.88 1211.65 1501.03 L1213.84 1501.51 Q1220.65 1502.97 1223.49 1505.64 Q1226.38 1508.28 1226.38 1513.04 Q1226.38 1518.46 1222.07 1521.62 Q1217.8 1524.78 1210.3 1524.78 Q1207.18 1524.78 1203.77 1524.15 Q1200.4 1523.56 1196.65 1522.34 L1196.65 1515.75 Q1200.2 1517.59 1203.63 1518.53 Q1207.07 1519.43 1210.44 1519.43 Q1214.95 1519.43 1217.38 1517.9 Q1219.81 1516.34 1219.81 1513.53 Q1219.81 1510.92 1218.04 1509.53 Q1216.31 1508.14 1210.37 1506.86 L1208.15 1506.34 Q1202.21 1505.09 1199.57 1502.52 Q1196.93 1499.91 1196.93 1495.4 Q1196.93 1489.91 1200.82 1486.93 Q1204.71 1483.94 1211.86 1483.94 Q1215.4 1483.94 1218.53 1484.46 Q1221.65 1484.98 1224.29 1486.03 Z" fill="#000000" fill-rule="nonzero" fill-opacity="1" /><path clip-path="url(#clip120)" d="M1261.34 1486.03 L1261.34 1492.07 Q1258.63 1490.68 1255.72 1489.98 Q1252.8 1489.29 1249.67 1489.29 Q1244.92 1489.29 1242.52 1490.75 Q1240.16 1492.21 1240.16 1495.12 Q1240.16 1497.34 1241.86 1498.63 Q1243.56 1499.88 1248.7 1501.03 L1250.89 1501.51 Q1257.7 1502.97 1260.54 1505.64 Q1263.42 1508.28 1263.42 1513.04 Q1263.42 1518.46 1259.12 1521.62 Q1254.85 1524.78 1247.35 1524.78 Q1244.22 1524.78 1240.82 1524.15 Q1237.45 1523.56 1233.7 1522.34 L1233.7 1515.75 Q1237.24 1517.59 1240.68 1518.53 Q1244.12 1519.43 1247.49 1519.43 Q1252 1519.43 1254.43 1517.9 Q1256.86 1516.34 1256.86 1513.53 Q1256.86 1510.92 1255.09 1509.53 Q1253.36 1508.14 1247.42 1506.86 L1245.2 1506.34 Q1239.26 1505.09 1236.62 1502.52 Q1233.98 1499.91 1233.98 1495.4 Q1233.98 1489.91 1237.87 1486.93 Q1241.76 1483.94 1248.91 1483.94 Q1252.45 1483.94 1255.58 1484.46 Q1258.7 1484.98 1261.34 1486.03 Z" fill="#000000" fill-rule="nonzero" fill-opacity="1" /><path clip-path="url(#clip120)" d="M1324.19 1486.37 L1324.19 1492.34 Q1321.48 1490.85 1318.74 1490.12 Q1316.03 1489.36 1313.25 1489.36 Q1307.04 1489.36 1303.6 1493.32 Q1300.16 1497.24 1300.16 1504.36 Q1300.16 1511.48 1303.6 1515.43 Q1307.04 1519.36 1313.25 1519.36 Q1316.03 1519.36 1318.74 1518.63 Q1321.48 1517.87 1324.19 1516.37 L1324.19 1522.28 Q1321.51 1523.53 1318.63 1524.15 Q1315.79 1524.78 1312.56 1524.78 Q1303.77 1524.78 1298.6 1519.25 Q1293.42 1513.73 1293.42 1504.36 Q1293.42 1494.84 1298.63 1489.39 Q1303.88 1483.94 1312.97 1483.94 Q1315.92 1483.94 1318.74 1484.57 Q1321.55 1485.16 1324.19 1486.37 Z" fill="#000000" fill-rule="nonzero" fill-opacity="1" /><path clip-path="url(#clip120)" d="M1350.37 1489.36 Q1345.23 1489.36 1342.24 1493.39 Q1339.26 1497.38 1339.26 1504.36 Q1339.26 1511.34 1342.21 1515.37 Q1345.2 1519.36 1350.37 1519.36 Q1355.47 1519.36 1358.46 1515.33 Q1361.45 1511.3 1361.45 1504.36 Q1361.45 1497.45 1358.46 1493.42 Q1355.47 1489.36 1350.37 1489.36 M1350.37 1483.94 Q1358.7 1483.94 1363.46 1489.36 Q1368.22 1494.78 1368.22 1504.36 Q1368.22 1513.91 1363.46 1519.36 Q1358.7 1524.78 1350.37 1524.78 Q1342 1524.78 1337.24 1519.36 Q1332.52 1513.91 1332.52 1504.36 Q1332.52 1494.78 1337.24 1489.36 Q1342 1483.94 1350.37 1483.94 Z" fill="#000000" fill-rule="nonzero" fill-opacity="1" /><path clip-path="url(#clip120)" d="M1378.15 1508.42 L1378.15 1484.88 L1384.54 1484.88 L1384.54 1508.18 Q1384.54 1513.7 1386.69 1516.48 Q1388.84 1519.22 1393.15 1519.22 Q1398.32 1519.22 1401.31 1515.92 Q1404.33 1512.62 1404.33 1506.93 L1404.33 1484.88 L1410.72 1484.88 L1410.72 1523.77 L1404.33 1523.77 L1404.33 1517.8 Q1402 1521.34 1398.91 1523.07 Q1395.85 1524.78 1391.79 1524.78 Q1385.09 1524.78 1381.62 1520.61 Q1378.15 1516.44 1378.15 1508.42 M1394.22 1483.94 L1394.22 1483.94 Z" fill="#000000" fill-rule="nonzero" fill-opacity="1" /><path clip-path="url(#clip120)" d="M1456.2 1500.3 L1456.2 1523.77 L1449.81 1523.77 L1449.81 1500.5 Q1449.81 1494.98 1447.66 1492.24 Q1445.51 1489.5 1441.2 1489.5 Q1436.03 1489.5 1433.04 1492.8 Q1430.06 1496.09 1430.06 1501.79 L1430.06 1523.77 L1423.63 1523.77 L1423.63 1484.88 L1430.06 1484.88 L1430.06 1490.92 Q1432.35 1487.41 1435.44 1485.68 Q1438.56 1483.94 1442.63 1483.94 Q1449.33 1483.94 1452.76 1488.11 Q1456.2 1492.24 1456.2 1500.3 Z" fill="#000000" fill-rule="nonzero" fill-opacity="1" /><path clip-path="url(#clip120)" d="M1475.26 1473.84 L1475.26 1484.88 L1488.42 1484.88 L1488.42 1489.84 L1475.26 1489.84 L1475.26 1510.96 Q1475.26 1515.71 1476.55 1517.07 Q1477.87 1518.42 1481.86 1518.42 L1488.42 1518.42 L1488.42 1523.77 L1481.86 1523.77 Q1474.47 1523.77 1471.65 1521.03 Q1468.84 1518.25 1468.84 1510.96 L1468.84 1489.84 L1464.15 1489.84 L1464.15 1484.88 L1468.84 1484.88 L1468.84 1473.84 L1475.26 1473.84 Z" fill="#000000" fill-rule="nonzero" fill-opacity="1" /><polyline clip-path="url(#clip120)" style="stroke:#000000; stroke-linecap:round; stroke-linejoin:round; stroke-width:4; stroke-opacity:1; fill:none" points="321.981,1320.16 321.981,110.236 "/>
<polyline clip-path="url(#clip120)" style="stroke:#000000; stroke-linecap:round; stroke-linejoin:round; stroke-width:4; stroke-opacity:1; fill:none" points="2289.76,1320.16 2289.76,110.236 "/>
<polyline clip-path="url(#clip120)" style="stroke:#000000; stroke-linecap:round; stroke-linejoin:round; stroke-width:4; stroke-opacity:1; fill:none" points="321.981,1320.16 340.879,1320.16 "/>
<polyline clip-path="url(#clip120)" style="stroke:#000000; stroke-linecap:round; stroke-linejoin:round; stroke-width:4; stroke-opacity:1; fill:none" points="321.981,1078.18 340.879,1078.18 "/>
<polyline clip-path="url(#clip120)" style="stroke:#000000; stroke-linecap:round; stroke-linejoin:round; stroke-width:4; stroke-opacity:1; fill:none" points="321.981,836.192 340.879,836.192 "/>
<polyline clip-path="url(#clip120)" style="stroke:#000000; stroke-linecap:round; stroke-linejoin:round; stroke-width:4; stroke-opacity:1; fill:none" points="321.981,594.207 340.879,594.207 "/>
<polyline clip-path="url(#clip120)" style="stroke:#000000; stroke-linecap:round; stroke-linejoin:round; stroke-width:4; stroke-opacity:1; fill:none" points="321.981,352.222 340.879,352.222 "/>
<polyline clip-path="url(#clip120)" style="stroke:#000000; stroke-linecap:round; stroke-linejoin:round; stroke-width:4; stroke-opacity:1; fill:none" points="321.981,110.236 340.879,110.236 "/>
<polyline clip-path="url(#clip120)" style="stroke:#000000; stroke-linecap:round; stroke-linejoin:round; stroke-width:4; stroke-opacity:1; fill:none" points="2289.76,1320.16 2270.87,1320.16 "/>
<polyline clip-path="url(#clip120)" style="stroke:#000000; stroke-linecap:round; stroke-linejoin:round; stroke-width:4; stroke-opacity:1; fill:none" points="2289.76,1078.18 2270.87,1078.18 "/>
<polyline clip-path="url(#clip120)" style="stroke:#000000; stroke-linecap:round; stroke-linejoin:round; stroke-width:4; stroke-opacity:1; fill:none" points="2289.76,836.192 2270.87,836.192 "/>
<polyline clip-path="url(#clip120)" style="stroke:#000000; stroke-linecap:round; stroke-linejoin:round; stroke-width:4; stroke-opacity:1; fill:none" points="2289.76,594.207 2270.87,594.207 "/>
<polyline clip-path="url(#clip120)" style="stroke:#000000; stroke-linecap:round; stroke-linejoin:round; stroke-width:4; stroke-opacity:1; fill:none" points="2289.76,352.222 2270.87,352.222 "/>
<polyline clip-path="url(#clip120)" style="stroke:#000000; stroke-linecap:round; stroke-linejoin:round; stroke-width:4; stroke-opacity:1; fill:none" points="2289.76,110.236 2270.87,110.236 "/>
<path clip-path="url(#clip120)" d="M200.218 1298.86 Q194.801 1298.86 192.058 1304.21 Q189.35 1309.52 189.35 1320.21 Q189.35 1330.87 192.058 1336.22 Q194.801 1341.53 200.218 1341.53 Q205.669 1341.53 208.378 1336.22 Q211.121 1330.87 211.121 1320.21 Q211.121 1309.52 208.378 1304.21 Q205.669 1298.86 200.218 1298.86 M200.218 1293.31 Q208.933 1293.31 213.517 1300.22 Q218.135 1307.09 218.135 1320.21 Q218.135 1333.31 213.517 1340.21 Q208.933 1347.09 200.218 1347.09 Q191.503 1347.09 186.885 1340.21 Q182.301 1333.31 182.301 1320.21 Q182.301 1307.09 186.885 1300.22 Q191.503 1293.31 200.218 1293.31 Z" fill="#000000" fill-rule="nonzero" fill-opacity="1" /><path clip-path="url(#clip120)" d="M230.461 1337.26 L237.787 1337.26 L237.787 1346.08 L230.461 1346.08 L230.461 1337.26 Z" fill="#000000" fill-rule="nonzero" fill-opacity="1" /><path clip-path="url(#clip120)" d="M268.065 1298.86 Q262.648 1298.86 259.905 1304.21 Q257.197 1309.52 257.197 1320.21 Q257.197 1330.87 259.905 1336.22 Q262.648 1341.53 268.065 1341.53 Q273.516 1341.53 276.225 1336.22 Q278.968 1330.87 278.968 1320.21 Q278.968 1309.52 276.225 1304.21 Q273.516 1298.86 268.065 1298.86 M268.065 1293.31 Q276.78 1293.31 281.363 1300.22 Q285.981 1307.09 285.981 1320.21 Q285.981 1333.31 281.363 1340.21 Q276.78 1347.09 268.065 1347.09 Q259.35 1347.09 254.732 1340.21 Q250.148 1333.31 250.148 1320.21 Q250.148 1307.09 254.732 1300.22 Q259.35 1293.31 268.065 1293.31 Z" fill="#000000" fill-rule="nonzero" fill-opacity="1" /><path clip-path="url(#clip120)" d="M202.614 1056.88 Q197.197 1056.88 194.454 1062.22 Q191.746 1067.54 191.746 1078.23 Q191.746 1088.89 194.454 1094.24 Q197.197 1099.55 202.614 1099.55 Q208.065 1099.55 210.774 1094.24 Q213.517 1088.89 213.517 1078.23 Q213.517 1067.54 210.774 1062.22 Q208.065 1056.88 202.614 1056.88 M202.614 1051.32 Q211.329 1051.32 215.912 1058.23 Q220.53 1065.1 220.53 1078.23 Q220.53 1091.32 215.912 1098.23 Q211.329 1105.1 202.614 1105.1 Q193.899 1105.1 189.281 1098.23 Q184.697 1091.32 184.697 1078.23 Q184.697 1065.1 189.281 1058.23 Q193.899 1051.32 202.614 1051.32 Z" fill="#000000" fill-rule="nonzero" fill-opacity="1" /><path clip-path="url(#clip120)" d="M232.857 1095.28 L240.183 1095.28 L240.183 1104.1 L232.857 1104.1 L232.857 1095.28 Z" fill="#000000" fill-rule="nonzero" fill-opacity="1" /><path clip-path="url(#clip120)" d="M261.502 1098.19 L285.981 1098.19 L285.981 1104.1 L253.065 1104.1 L253.065 1098.19 Q257.058 1094.06 263.933 1087.12 Q270.843 1080.14 272.613 1078.13 Q275.981 1074.34 277.301 1071.74 Q278.655 1069.1 278.655 1066.56 Q278.655 1062.43 275.738 1059.83 Q272.857 1057.22 268.204 1057.22 Q264.905 1057.22 261.225 1058.37 Q257.579 1059.51 253.412 1061.84 L253.412 1054.76 Q257.648 1053.06 261.329 1052.19 Q265.009 1051.32 268.065 1051.32 Q276.12 1051.32 280.912 1055.35 Q285.704 1059.38 285.704 1066.11 Q285.704 1069.31 284.488 1072.19 Q283.308 1075.04 280.148 1078.92 Q279.28 1079.93 274.627 1084.76 Q269.975 1089.55 261.502 1098.19 Z" fill="#000000" fill-rule="nonzero" fill-opacity="1" /><path clip-path="url(#clip120)" d="M199.489 814.89 Q194.072 814.89 191.329 820.237 Q188.621 825.55 188.621 836.244 Q188.621 846.904 191.329 852.251 Q194.072 857.564 199.489 857.564 Q204.94 857.564 207.649 852.251 Q210.392 846.904 210.392 836.244 Q210.392 825.55 207.649 820.237 Q204.94 814.89 199.489 814.89 M199.489 809.335 Q208.204 809.335 212.787 816.244 Q217.405 823.119 217.405 836.244 Q217.405 849.335 212.787 856.244 Q208.204 863.119 199.489 863.119 Q190.774 863.119 186.156 856.244 Q181.572 849.335 181.572 836.244 Q181.572 823.119 186.156 816.244 Q190.774 809.335 199.489 809.335 Z" fill="#000000" fill-rule="nonzero" fill-opacity="1" /><path clip-path="url(#clip120)" d="M229.732 853.293 L237.058 853.293 L237.058 862.112 L229.732 862.112 L229.732 853.293 Z" fill="#000000" fill-rule="nonzero" fill-opacity="1" /><path clip-path="url(#clip120)" d="M271.607 816.383 L253.898 844.057 L271.607 844.057 L271.607 816.383 M269.766 810.272 L278.586 810.272 L278.586 844.057 L285.981 844.057 L285.981 849.89 L278.586 849.89 L278.586 862.112 L271.607 862.112 L271.607 849.89 L248.204 849.89 L248.204 843.119 L269.766 810.272 Z" fill="#000000" fill-rule="nonzero" fill-opacity="1" /><path clip-path="url(#clip120)" d="M199.975 572.905 Q194.558 572.905 191.815 578.252 Q189.107 583.565 189.107 594.259 Q189.107 604.919 191.815 610.266 Q194.558 615.578 199.975 615.578 Q205.426 615.578 208.135 610.266 Q210.878 604.919 210.878 594.259 Q210.878 583.565 208.135 578.252 Q205.426 572.905 199.975 572.905 M199.975 567.349 Q208.69 567.349 213.274 574.259 Q217.892 581.134 217.892 594.259 Q217.892 607.349 213.274 614.259 Q208.69 621.134 199.975 621.134 Q191.26 621.134 186.642 614.259 Q182.058 607.349 182.058 594.259 Q182.058 581.134 186.642 574.259 Q191.26 567.349 199.975 567.349 Z" fill="#000000" fill-rule="nonzero" fill-opacity="1" /><path clip-path="url(#clip120)" d="M230.218 611.308 L237.544 611.308 L237.544 620.127 L230.218 620.127 L230.218 611.308 Z" fill="#000000" fill-rule="nonzero" fill-opacity="1" /><path clip-path="url(#clip120)" d="M268.69 591.412 Q263.968 591.412 261.19 594.641 Q258.447 597.87 258.447 603.495 Q258.447 609.085 261.19 612.349 Q263.968 615.578 268.69 615.578 Q273.412 615.578 276.155 612.349 Q278.933 609.085 278.933 603.495 Q278.933 597.87 276.155 594.641 Q273.412 591.412 268.69 591.412 M282.613 569.433 L282.613 575.822 Q279.975 574.572 277.266 573.912 Q274.593 573.252 271.954 573.252 Q265.009 573.252 261.329 577.94 Q257.683 582.627 257.162 592.106 Q259.211 589.085 262.301 587.488 Q265.391 585.856 269.107 585.856 Q276.919 585.856 281.433 590.613 Q285.981 595.335 285.981 603.495 Q285.981 611.481 281.259 616.307 Q276.537 621.134 268.69 621.134 Q259.697 621.134 254.94 614.259 Q250.183 607.349 250.183 594.259 Q250.183 581.967 256.016 574.676 Q261.85 567.349 271.676 567.349 Q274.315 567.349 276.988 567.87 Q279.697 568.391 282.613 569.433 Z" fill="#000000" fill-rule="nonzero" fill-opacity="1" /><path clip-path="url(#clip120)" d="M200.357 330.92 Q194.94 330.92 192.197 336.267 Q189.489 341.579 189.489 352.274 Q189.489 362.933 192.197 368.281 Q194.94 373.593 200.357 373.593 Q205.808 373.593 208.517 368.281 Q211.26 362.933 211.26 352.274 Q211.26 341.579 208.517 336.267 Q205.808 330.92 200.357 330.92 M200.357 325.364 Q209.072 325.364 213.655 332.274 Q218.273 339.149 218.273 352.274 Q218.273 365.364 213.655 372.274 Q209.072 379.148 200.357 379.148 Q191.642 379.148 187.024 372.274 Q182.44 365.364 182.44 352.274 Q182.44 339.149 187.024 332.274 Q191.642 325.364 200.357 325.364 Z" fill="#000000" fill-rule="nonzero" fill-opacity="1" /><path clip-path="url(#clip120)" d="M230.6 369.322 L237.926 369.322 L237.926 378.142 L230.6 378.142 L230.6 369.322 Z" fill="#000000" fill-rule="nonzero" fill-opacity="1" /><path clip-path="url(#clip120)" d="M268.204 353.524 Q263.204 353.524 260.322 356.197 Q257.475 358.871 257.475 363.558 Q257.475 368.246 260.322 370.919 Q263.204 373.593 268.204 373.593 Q273.204 373.593 276.086 370.919 Q278.968 368.211 278.968 363.558 Q278.968 358.871 276.086 356.197 Q273.238 353.524 268.204 353.524 M261.19 350.538 Q256.676 349.426 254.141 346.336 Q251.641 343.246 251.641 338.801 Q251.641 332.586 256.051 328.975 Q260.495 325.364 268.204 325.364 Q275.947 325.364 280.356 328.975 Q284.766 332.586 284.766 338.801 Q284.766 343.246 282.231 346.336 Q279.731 349.426 275.252 350.538 Q280.322 351.718 283.134 355.156 Q285.981 358.593 285.981 363.558 Q285.981 371.093 281.363 375.121 Q276.78 379.148 268.204 379.148 Q259.627 379.148 255.009 375.121 Q250.426 371.093 250.426 363.558 Q250.426 358.593 253.273 355.156 Q256.12 351.718 261.19 350.538 M258.62 339.461 Q258.62 343.489 261.12 345.746 Q263.655 348.003 268.204 348.003 Q272.718 348.003 275.252 345.746 Q277.822 343.489 277.822 339.461 Q277.822 335.433 275.252 333.177 Q272.718 330.92 268.204 330.92 Q263.655 330.92 261.12 333.177 Q258.62 335.433 258.62 339.461 Z" fill="#000000" fill-rule="nonzero" fill-opacity="1" /><path clip-path="url(#clip120)" d="M186.433 130.253 L197.892 130.253 L197.892 90.7051 L185.426 93.2051 L185.426 86.8162 L197.822 84.3162 L204.836 84.3162 L204.836 130.253 L216.294 130.253 L216.294 136.156 L186.433 136.156 L186.433 130.253 Z" fill="#000000" fill-rule="nonzero" fill-opacity="1" /><path clip-path="url(#clip120)" d="M230.461 127.337 L237.787 127.337 L237.787 136.156 L230.461 136.156 L230.461 127.337 Z" fill="#000000" fill-rule="nonzero" fill-opacity="1" /><path clip-path="url(#clip120)" d="M268.065 88.9343 Q262.648 88.9343 259.905 94.2814 Q257.197 99.5939 257.197 110.288 Q257.197 120.948 259.905 126.295 Q262.648 131.608 268.065 131.608 Q273.516 131.608 276.225 126.295 Q278.968 120.948 278.968 110.288 Q278.968 99.5939 276.225 94.2814 Q273.516 88.9343 268.065 88.9343 M268.065 83.3787 Q276.78 83.3787 281.363 90.2884 Q285.981 97.1634 285.981 110.288 Q285.981 123.379 281.363 130.288 Q276.78 137.163 268.065 137.163 Q259.35 137.163 254.732 130.288 Q250.148 123.379 250.148 110.288 Q250.148 97.1634 254.732 90.2884 Q259.35 83.3787 268.065 83.3787 Z" fill="#000000" fill-rule="nonzero" fill-opacity="1" /><path clip-path="url(#clip120)" d="M106.548 859.504 L130.02 859.504 L130.02 865.893 L106.757 865.893 Q101.236 865.893 98.4927 868.046 Q95.7496 870.199 95.7496 874.504 Q95.7496 879.678 99.0482 882.664 Q102.347 885.65 108.041 885.65 L130.02 885.65 L130.02 892.074 L75.9928 892.074 L75.9928 885.65 L97.1732 885.65 Q93.6663 883.358 91.9302 880.268 Q90.1941 877.143 90.1941 873.081 Q90.1941 866.379 94.3608 862.942 Q98.4927 859.504 106.548 859.504 Z" fill="#000000" fill-rule="nonzero" fill-opacity="1" /><path clip-path="url(#clip120)" d="M108.979 813.498 L112.104 813.498 L112.104 842.872 Q118.701 842.456 122.173 838.914 Q125.611 835.338 125.611 828.984 Q125.611 825.303 124.708 821.866 Q123.805 818.393 121.999 814.991 L128.041 814.991 Q129.499 818.428 130.263 822.039 Q131.027 825.65 131.027 829.366 Q131.027 838.671 125.611 844.122 Q120.194 849.539 110.958 849.539 Q101.409 849.539 95.8191 844.4 Q90.1941 839.227 90.1941 830.477 Q90.1941 822.63 95.2635 818.081 Q100.298 813.498 108.979 813.498 M107.104 819.887 Q101.861 819.956 98.7357 822.838 Q95.6107 825.685 95.6107 830.407 Q95.6107 835.754 98.6316 838.984 Q101.652 842.178 107.138 842.664 L107.104 819.887 Z" fill="#000000" fill-rule="nonzero" fill-opacity="1" /><path clip-path="url(#clip120)" d="M110.472 785.338 Q110.472 793.081 112.243 796.067 Q114.013 799.053 118.284 799.053 Q121.687 799.053 123.701 796.831 Q125.68 794.574 125.68 790.72 Q125.68 785.408 121.93 782.213 Q118.145 778.984 111.895 778.984 L110.472 778.984 L110.472 785.338 M107.833 772.595 L130.02 772.595 L130.02 778.984 L124.118 778.984 Q127.659 781.171 129.361 784.435 Q131.027 787.699 131.027 792.421 Q131.027 798.394 127.694 801.935 Q124.326 805.442 118.701 805.442 Q112.138 805.442 108.805 801.067 Q105.472 796.657 105.472 787.942 L105.472 778.984 L104.847 778.984 Q100.437 778.984 98.0413 781.901 Q95.6107 784.783 95.6107 790.026 Q95.6107 793.359 96.4094 796.519 Q97.208 799.678 98.8052 802.595 L92.9024 802.595 Q91.5483 799.088 90.8885 795.789 Q90.1941 792.491 90.1941 789.366 Q90.1941 780.928 94.5691 776.762 Q98.9441 772.595 107.833 772.595 Z" fill="#000000" fill-rule="nonzero" fill-opacity="1" /><path clip-path="url(#clip120)" d="M97.0343 733.845 L75.9928 733.845 L75.9928 727.456 L130.02 727.456 L130.02 733.845 L124.187 733.845 Q127.659 735.859 129.361 738.949 Q131.027 742.005 131.027 746.311 Q131.027 753.359 125.402 757.804 Q119.777 762.213 110.611 762.213 Q101.444 762.213 95.8191 757.804 Q90.1941 753.359 90.1941 746.311 Q90.1941 742.005 91.8955 738.949 Q93.5621 735.859 97.0343 733.845 M110.611 755.616 Q117.659 755.616 121.687 752.734 Q125.68 749.817 125.68 744.748 Q125.68 739.679 121.687 736.762 Q117.659 733.845 110.611 733.845 Q103.562 733.845 99.5691 736.762 Q95.5413 739.679 95.5413 744.748 Q95.5413 749.817 99.5691 752.734 Q103.562 755.616 110.611 755.616 Z" fill="#000000" fill-rule="nonzero" fill-opacity="1" /><path clip-path="url(#clip120)" d="M97.1038 669.158 Q96.4788 670.235 96.201 671.519 Q95.8885 672.769 95.8885 674.297 Q95.8885 679.714 99.4302 682.63 Q102.937 685.512 109.534 685.512 L130.02 685.512 L130.02 691.936 L91.1316 691.936 L91.1316 685.512 L97.1732 685.512 Q93.6316 683.498 91.9302 680.269 Q90.1941 677.04 90.1941 672.422 Q90.1941 671.762 90.2983 670.964 Q90.3677 670.165 90.5413 669.193 L97.1038 669.158 Z" fill="#000000" fill-rule="nonzero" fill-opacity="1" /><path clip-path="url(#clip120)" d="M110.472 644.783 Q110.472 652.526 112.243 655.512 Q114.013 658.498 118.284 658.498 Q121.687 658.498 123.701 656.276 Q125.68 654.019 125.68 650.165 Q125.68 644.853 121.93 641.658 Q118.145 638.429 111.895 638.429 L110.472 638.429 L110.472 644.783 M107.833 632.04 L130.02 632.04 L130.02 638.429 L124.118 638.429 Q127.659 640.617 129.361 643.881 Q131.027 647.144 131.027 651.867 Q131.027 657.839 127.694 661.38 Q124.326 664.887 118.701 664.887 Q112.138 664.887 108.805 660.512 Q105.472 656.103 105.472 647.387 L105.472 638.429 L104.847 638.429 Q100.437 638.429 98.0413 641.346 Q95.6107 644.228 95.6107 649.471 Q95.6107 652.804 96.4094 655.964 Q97.208 659.123 98.8052 662.04 L92.9024 662.04 Q91.5483 658.533 90.8885 655.235 Q90.1941 651.936 90.1941 648.811 Q90.1941 640.374 94.5691 636.207 Q98.9441 632.04 107.833 632.04 Z" fill="#000000" fill-rule="nonzero" fill-opacity="1" /><path clip-path="url(#clip120)" d="M80.09 612.561 L91.1316 612.561 L91.1316 599.402 L96.0969 599.402 L96.0969 612.561 L117.208 612.561 Q121.965 612.561 123.319 611.277 Q124.673 609.957 124.673 605.964 L124.673 599.402 L130.02 599.402 L130.02 605.964 Q130.02 613.36 127.277 616.172 Q124.499 618.985 117.208 618.985 L96.0969 618.985 L96.0969 623.672 L91.1316 623.672 L91.1316 618.985 L80.09 618.985 L80.09 612.561 Z" fill="#000000" fill-rule="nonzero" fill-opacity="1" /><path clip-path="url(#clip120)" d="M91.1316 590.999 L91.1316 584.61 L130.02 584.61 L130.02 590.999 L91.1316 590.999 M75.9928 590.999 L75.9928 584.61 L84.083 584.61 L84.083 590.999 L75.9928 590.999 Z" fill="#000000" fill-rule="nonzero" fill-opacity="1" /><path clip-path="url(#clip120)" d="M95.6107 556.173 Q95.6107 561.312 99.6385 564.298 Q103.632 567.284 110.611 567.284 Q117.59 567.284 121.618 564.332 Q125.611 561.346 125.611 556.173 Q125.611 551.069 121.583 548.082 Q117.555 545.096 110.611 545.096 Q103.701 545.096 99.6732 548.082 Q95.6107 551.069 95.6107 556.173 M90.1941 556.173 Q90.1941 547.839 95.6107 543.082 Q101.027 538.326 110.611 538.326 Q120.159 538.326 125.611 543.082 Q131.027 547.839 131.027 556.173 Q131.027 564.541 125.611 569.298 Q120.159 574.02 110.611 574.02 Q101.027 574.02 95.6107 569.298 Q90.1941 564.541 90.1941 556.173 Z" fill="#000000" fill-rule="nonzero" fill-opacity="1" /><polyline clip-path="url(#clip122)" style="stroke:#000000; stroke-linecap:round; stroke-linejoin:round; stroke-width:8; stroke-opacity:1; fill:none" points="377.673,1078.18 672.916,755.53 996.473,691.001 1291.72,791.828 1615.27,716.409 1910.51,708.343 2234.07,722.459 "/>
<circle clip-path="url(#clip122)" cx="377.673" cy="1078.18" r="14.4" fill="#ffffff" fill-rule="evenodd" fill-opacity="1" stroke="#000000" stroke-opacity="1" stroke-width="3.2"/>
<circle clip-path="url(#clip122)" cx="672.916" cy="755.53" r="14.4" fill="#ffffff" fill-rule="evenodd" fill-opacity="1" stroke="#000000" stroke-opacity="1" stroke-width="3.2"/>
<circle clip-path="url(#clip122)" cx="996.473" cy="691.001" r="14.4" fill="#ffffff" fill-rule="evenodd" fill-opacity="1" stroke="#000000" stroke-opacity="1" stroke-width="3.2"/>
<circle clip-path="url(#clip122)" cx="1291.72" cy="791.828" r="14.4" fill="#ffffff" fill-rule="evenodd" fill-opacity="1" stroke="#000000" stroke-opacity="1" stroke-width="3.2"/>
<circle clip-path="url(#clip122)" cx="1615.27" cy="716.409" r="14.4" fill="#ffffff" fill-rule="evenodd" fill-opacity="1" stroke="#000000" stroke-opacity="1" stroke-width="3.2"/>
<circle clip-path="url(#clip122)" cx="1910.51" cy="708.343" r="14.4" fill="#ffffff" fill-rule="evenodd" fill-opacity="1" stroke="#000000" stroke-opacity="1" stroke-width="3.2"/>
<circle clip-path="url(#clip122)" cx="2234.07" cy="722.459" r="14.4" fill="#ffffff" fill-rule="evenodd" fill-opacity="1" stroke="#000000" stroke-opacity="1" stroke-width="3.2"/>
<path clip-path="url(#clip120)" d="M339.494 1004.94 Q333.174 1004.94 329.974 1011.18 Q326.814 1017.38 326.814 1029.85 Q326.814 1042.29 329.974 1048.53 Q333.174 1054.73 339.494 1054.73 Q345.854 1054.73 349.013 1048.53 Q352.213 1042.29 352.213 1029.85 Q352.213 1017.38 349.013 1011.18 Q345.854 1004.94 339.494 1004.94 M339.494 998.46 Q349.661 998.46 355.009 1006.52 Q360.396 1014.54 360.396 1029.85 Q360.396 1045.13 355.009 1053.19 Q349.661 1061.21 339.494 1061.21 Q329.326 1061.21 323.938 1053.19 Q318.591 1045.13 318.591 1029.85 Q318.591 1014.54 323.938 1006.52 Q329.326 998.46 339.494 998.46 Z" fill="#000000" fill-rule="nonzero" fill-opacity="1" /><path clip-path="url(#clip120)" d="M374.777 1049.74 L383.324 1049.74 L383.324 1060.03 L374.777 1060.03 L374.777 1049.74 Z" fill="#000000" fill-rule="nonzero" fill-opacity="1" /><path clip-path="url(#clip120)" d="M408.197 1053.15 L436.756 1053.15 L436.756 1060.03 L398.353 1060.03 L398.353 1053.15 Q403.012 1048.33 411.033 1040.22 Q419.094 1032.08 421.16 1029.73 Q425.089 1025.32 426.629 1022.28 Q428.208 1019.2 428.208 1016.24 Q428.208 1011.42 424.806 1008.38 Q421.443 1005.35 416.015 1005.35 Q412.167 1005.35 407.873 1006.68 Q403.619 1008.02 398.758 1010.73 L398.758 1002.47 Q403.7 1000.49 407.994 999.473 Q412.288 998.46 415.853 998.46 Q425.251 998.46 430.842 1003.16 Q436.432 1007.86 436.432 1015.72 Q436.432 1019.44 435.014 1022.81 Q433.637 1026.13 429.95 1030.66 Q428.938 1031.84 423.509 1037.47 Q418.081 1043.06 408.197 1053.15 Z" fill="#000000" fill-rule="nonzero" fill-opacity="1" /><path clip-path="url(#clip120)" d="M554.953 682.294 Q548.634 682.294 545.434 688.533 Q542.274 694.73 542.274 707.207 Q542.274 719.643 545.434 725.882 Q548.634 732.08 554.953 732.08 Q561.313 732.08 564.473 725.882 Q567.673 719.643 567.673 707.207 Q567.673 694.73 564.473 688.533 Q561.313 682.294 554.953 682.294 M554.953 675.813 Q565.121 675.813 570.468 683.874 Q575.856 691.895 575.856 707.207 Q575.856 722.479 570.468 730.54 Q565.121 738.561 554.953 738.561 Q544.786 738.561 539.398 730.54 Q534.051 722.479 534.051 707.207 Q534.051 691.895 539.398 683.874 Q544.786 675.813 554.953 675.813 Z" fill="#000000" fill-rule="nonzero" fill-opacity="1" /><path clip-path="url(#clip120)" d="M590.237 727.097 L598.784 727.097 L598.784 737.386 L590.237 737.386 L590.237 727.097 Z" fill="#000000" fill-rule="nonzero" fill-opacity="1" /><path clip-path="url(#clip120)" d="M639.091 684.036 L618.431 716.322 L639.091 716.322 L639.091 684.036 M636.944 676.906 L647.233 676.906 L647.233 716.322 L655.861 716.322 L655.861 723.127 L647.233 723.127 L647.233 737.386 L639.091 737.386 L639.091 723.127 L611.788 723.127 L611.788 715.228 L636.944 676.906 Z" fill="#000000" fill-rule="nonzero" fill-opacity="1" /><path clip-path="url(#clip120)" d="M687.904 703.885 Q682.395 703.885 679.154 707.653 Q675.954 711.42 675.954 717.983 Q675.954 724.505 679.154 728.312 Q682.395 732.08 687.904 732.08 Q693.413 732.08 696.614 728.312 Q699.854 724.505 699.854 717.983 Q699.854 711.42 696.614 707.653 Q693.413 703.885 687.904 703.885 M704.148 678.243 L704.148 685.697 Q701.07 684.239 697.91 683.469 Q694.791 682.699 691.712 682.699 Q683.61 682.699 679.316 688.168 Q675.063 693.637 674.455 704.696 Q676.845 701.171 680.45 699.308 Q684.056 697.404 688.39 697.404 Q697.505 697.404 702.771 702.954 Q708.078 708.463 708.078 717.983 Q708.078 727.3 702.568 732.93 Q697.059 738.561 687.904 738.561 Q677.412 738.561 671.863 730.54 Q666.313 722.479 666.313 707.207 Q666.313 692.867 673.118 684.36 Q679.924 675.813 691.388 675.813 Q694.467 675.813 697.586 676.42 Q700.745 677.028 704.148 678.243 Z" fill="#000000" fill-rule="nonzero" fill-opacity="1" /><path clip-path="url(#clip120)" d="M740.687 703.885 Q735.178 703.885 731.937 707.653 Q728.737 711.42 728.737 717.983 Q728.737 724.505 731.937 728.312 Q735.178 732.08 740.687 732.08 Q746.197 732.08 749.397 728.312 Q752.638 724.505 752.638 717.983 Q752.638 711.42 749.397 707.653 Q746.197 703.885 740.687 703.885 M756.932 678.243 L756.932 685.697 Q753.853 684.239 750.693 683.469 Q747.574 682.699 744.495 682.699 Q736.393 682.699 732.099 688.168 Q727.846 693.637 727.238 704.696 Q729.628 701.171 733.234 699.308 Q736.839 697.404 741.174 697.404 Q750.288 697.404 755.554 702.954 Q760.861 708.463 760.861 717.983 Q760.861 727.3 755.352 732.93 Q749.842 738.561 740.687 738.561 Q730.196 738.561 724.646 730.54 Q719.096 722.479 719.096 707.207 Q719.096 692.867 725.902 684.36 Q732.707 675.813 744.171 675.813 Q747.25 675.813 750.369 676.42 Q753.529 677.028 756.932 678.243 Z" fill="#000000" fill-rule="nonzero" fill-opacity="1" /><path clip-path="url(#clip120)" d="M772.892 676.906 L811.781 676.906 L811.781 680.39 L789.825 737.386 L781.277 737.386 L801.937 683.793 L772.892 683.793 L772.892 676.906 Z" fill="#000000" fill-rule="nonzero" fill-opacity="1" /><path clip-path="url(#clip120)" d="M931.901 617.765 Q925.582 617.765 922.382 624.003 Q919.222 630.201 919.222 642.678 Q919.222 655.114 922.382 661.352 Q925.582 667.55 931.901 667.55 Q938.261 667.55 941.421 661.352 Q944.621 655.114 944.621 642.678 Q944.621 630.201 941.421 624.003 Q938.261 617.765 931.901 617.765 M931.901 611.283 Q942.069 611.283 947.416 619.345 Q952.804 627.365 952.804 642.678 Q952.804 657.95 947.416 666.011 Q942.069 674.032 931.901 674.032 Q921.734 674.032 916.346 666.011 Q910.999 657.95 910.999 642.678 Q910.999 627.365 916.346 619.345 Q921.734 611.283 931.901 611.283 Z" fill="#000000" fill-rule="nonzero" fill-opacity="1" /><path clip-path="url(#clip120)" d="M967.185 662.568 L975.732 662.568 L975.732 672.857 L967.185 672.857 L967.185 662.568 Z" fill="#000000" fill-rule="nonzero" fill-opacity="1" /><path clip-path="url(#clip120)" d="M993.637 612.377 L1025.76 612.377 L1025.76 619.264 L1001.13 619.264 L1001.13 634.09 Q1002.91 633.482 1004.7 633.199 Q1006.48 632.875 1008.26 632.875 Q1018.39 632.875 1024.3 638.424 Q1030.22 643.974 1030.22 653.453 Q1030.22 663.216 1024.14 668.644 Q1018.06 674.032 1007.01 674.032 Q1003.2 674.032 999.227 673.384 Q995.298 672.736 991.085 671.439 L991.085 663.216 Q994.731 665.201 998.62 666.173 Q1002.51 667.145 1006.84 667.145 Q1013.85 667.145 1017.94 663.459 Q1022.03 659.773 1022.03 653.453 Q1022.03 647.134 1017.94 643.447 Q1013.85 639.761 1006.84 639.761 Q1003.56 639.761 1000.28 640.49 Q997.04 641.219 993.637 642.759 L993.637 612.377 Z" fill="#000000" fill-rule="nonzero" fill-opacity="1" /><path clip-path="url(#clip120)" d="M1053.39 665.97 L1081.95 665.97 L1081.95 672.857 L1043.54 672.857 L1043.54 665.97 Q1048.2 661.15 1056.22 653.048 Q1064.29 644.906 1066.35 642.556 Q1070.28 638.141 1071.82 635.103 Q1073.4 632.024 1073.4 629.067 Q1073.4 624.246 1070 621.208 Q1066.63 618.17 1061.21 618.17 Q1057.36 618.17 1053.06 619.507 Q1048.81 620.843 1043.95 623.558 L1043.95 615.294 Q1048.89 613.309 1053.19 612.296 Q1057.48 611.283 1061.04 611.283 Q1070.44 611.283 1076.03 615.982 Q1081.62 620.681 1081.62 628.54 Q1081.62 632.267 1080.21 635.629 Q1078.83 638.951 1075.14 643.488 Q1074.13 644.663 1068.7 650.293 Q1063.27 655.884 1053.39 665.97 Z" fill="#000000" fill-rule="nonzero" fill-opacity="1" /><path clip-path="url(#clip120)" d="M1173.75 718.592 Q1167.43 718.592 1164.23 724.83 Q1161.07 731.028 1161.07 743.505 Q1161.07 755.941 1164.23 762.18 Q1167.43 768.378 1173.75 768.378 Q1180.11 768.378 1183.27 762.18 Q1186.47 755.941 1186.47 743.505 Q1186.47 731.028 1183.27 724.83 Q1180.11 718.592 1173.75 718.592 M1173.75 712.111 Q1183.92 712.111 1189.27 720.172 Q1194.66 728.193 1194.66 743.505 Q1194.66 758.777 1189.27 766.838 Q1183.92 774.859 1173.75 774.859 Q1163.59 774.859 1158.2 766.838 Q1152.85 758.777 1152.85 743.505 Q1152.85 728.193 1158.2 720.172 Q1163.59 712.111 1173.75 712.111 Z" fill="#000000" fill-rule="nonzero" fill-opacity="1" /><path clip-path="url(#clip120)" d="M1209.04 763.395 L1217.58 763.395 L1217.58 773.684 L1209.04 773.684 L1209.04 763.395 Z" fill="#000000" fill-rule="nonzero" fill-opacity="1" /><path clip-path="url(#clip120)" d="M1257.89 720.334 L1237.23 752.62 L1257.89 752.62 L1257.89 720.334 M1255.74 713.204 L1266.03 713.204 L1266.03 752.62 L1274.66 752.62 L1274.66 759.425 L1266.03 759.425 L1266.03 773.684 L1257.89 773.684 L1257.89 759.425 L1230.59 759.425 L1230.59 751.526 L1255.74 713.204 Z" fill="#000000" fill-rule="nonzero" fill-opacity="1" /><path clip-path="url(#clip120)" d="M1312.98 741.074 Q1318.86 742.33 1322.14 746.3 Q1325.46 750.27 1325.46 756.103 Q1325.46 765.056 1319.3 769.957 Q1313.14 774.859 1301.8 774.859 Q1297.99 774.859 1293.94 774.089 Q1289.93 773.36 1285.64 771.861 L1285.64 763.962 Q1289.04 765.947 1293.09 766.96 Q1297.14 767.972 1301.56 767.972 Q1309.26 767.972 1313.27 764.934 Q1317.32 761.896 1317.32 756.103 Q1317.32 750.756 1313.55 747.758 Q1309.82 744.72 1303.14 744.72 L1296.09 744.72 L1296.09 737.996 L1303.46 737.996 Q1309.5 737.996 1312.7 735.606 Q1315.9 733.175 1315.9 728.638 Q1315.9 723.98 1312.58 721.509 Q1309.3 718.997 1303.14 718.997 Q1299.78 718.997 1295.93 719.726 Q1292.08 720.455 1287.46 721.995 L1287.46 714.703 Q1292.12 713.407 1296.17 712.759 Q1300.26 712.111 1303.87 712.111 Q1313.19 712.111 1318.61 716.364 Q1324.04 720.577 1324.04 727.788 Q1324.04 732.811 1321.17 736.294 Q1318.29 739.738 1312.98 741.074 Z" fill="#000000" fill-rule="nonzero" fill-opacity="1" /><path clip-path="url(#clip120)" d="M1359.49 740.183 Q1353.98 740.183 1350.74 743.951 Q1347.54 747.718 1347.54 754.28 Q1347.54 760.802 1350.74 764.61 Q1353.98 768.378 1359.49 768.378 Q1365 768.378 1368.2 764.61 Q1371.44 760.802 1371.44 754.28 Q1371.44 747.718 1368.2 743.951 Q1365 740.183 1359.49 740.183 M1375.73 714.541 L1375.73 721.995 Q1372.65 720.536 1369.49 719.767 Q1366.37 718.997 1363.29 718.997 Q1355.19 718.997 1350.9 724.466 Q1346.65 729.934 1346.04 740.993 Q1348.43 737.469 1352.03 735.606 Q1355.64 733.702 1359.97 733.702 Q1369.09 733.702 1374.35 739.252 Q1379.66 744.761 1379.66 754.28 Q1379.66 763.598 1374.15 769.228 Q1368.64 774.859 1359.49 774.859 Q1349 774.859 1343.45 766.838 Q1337.9 758.777 1337.9 743.505 Q1337.9 729.165 1344.7 720.658 Q1351.51 712.111 1362.97 712.111 Q1366.05 712.111 1369.17 712.718 Q1372.33 713.326 1375.73 714.541 Z" fill="#000000" fill-rule="nonzero" fill-opacity="1" /><path clip-path="url(#clip120)" d="M1391.69 713.204 L1430.58 713.204 L1430.58 716.688 L1408.62 773.684 L1400.08 773.684 L1420.74 720.091 L1391.69 720.091 L1391.69 713.204 Z" fill="#000000" fill-rule="nonzero" fill-opacity="1" /><path clip-path="url(#clip120)" d="M1523.07 643.173 Q1516.75 643.173 1513.55 649.412 Q1510.39 655.609 1510.39 668.086 Q1510.39 680.523 1513.55 686.761 Q1516.75 692.959 1523.07 692.959 Q1529.43 692.959 1532.59 686.761 Q1535.79 680.523 1535.79 668.086 Q1535.79 655.609 1532.59 649.412 Q1529.43 643.173 1523.07 643.173 M1523.07 636.692 Q1533.24 636.692 1538.59 644.753 Q1543.98 652.774 1543.98 668.086 Q1543.98 683.358 1538.59 691.419 Q1533.24 699.44 1523.07 699.44 Q1512.91 699.44 1507.52 691.419 Q1502.17 683.358 1502.17 668.086 Q1502.17 652.774 1507.52 644.753 Q1512.91 636.692 1523.07 636.692 Z" fill="#000000" fill-rule="nonzero" fill-opacity="1" /><path clip-path="url(#clip120)" d="M1558.36 687.976 L1566.9 687.976 L1566.9 698.265 L1558.36 698.265 L1558.36 687.976 Z" fill="#000000" fill-rule="nonzero" fill-opacity="1" /><path clip-path="url(#clip120)" d="M1607.21 644.915 L1586.55 677.201 L1607.21 677.201 L1607.21 644.915 M1605.06 637.785 L1615.35 637.785 L1615.35 677.201 L1623.98 677.201 L1623.98 684.006 L1615.35 684.006 L1615.35 698.265 L1607.21 698.265 L1607.21 684.006 L1579.91 684.006 L1579.91 676.107 L1605.06 637.785 Z" fill="#000000" fill-rule="nonzero" fill-opacity="1" /><path clip-path="url(#clip120)" d="M1637.75 697.01 L1637.75 689.556 Q1640.83 691.014 1643.99 691.784 Q1647.15 692.554 1650.19 692.554 Q1658.29 692.554 1662.55 687.126 Q1666.84 681.657 1667.45 670.557 Q1665.1 674.041 1661.49 675.905 Q1657.89 677.768 1653.51 677.768 Q1644.44 677.768 1639.13 672.299 Q1633.87 666.79 1633.87 657.27 Q1633.87 647.953 1639.38 642.323 Q1644.88 636.692 1654.04 636.692 Q1664.53 636.692 1670.04 644.753 Q1675.59 652.774 1675.59 668.086 Q1675.59 682.386 1668.78 690.933 Q1662.02 699.44 1650.56 699.44 Q1647.48 699.44 1644.32 698.833 Q1641.16 698.225 1637.75 697.01 M1654.04 671.367 Q1659.55 671.367 1662.75 667.6 Q1665.99 663.833 1665.99 657.27 Q1665.99 650.748 1662.75 646.981 Q1659.55 643.173 1654.04 643.173 Q1648.53 643.173 1645.29 646.981 Q1642.09 650.748 1642.09 657.27 Q1642.09 663.833 1645.29 667.6 Q1648.53 671.367 1654.04 671.367 Z" fill="#000000" fill-rule="nonzero" fill-opacity="1" /><path clip-path="url(#clip120)" d="M1690.54 697.01 L1690.54 689.556 Q1693.62 691.014 1696.78 691.784 Q1699.94 692.554 1702.97 692.554 Q1711.08 692.554 1715.33 687.126 Q1719.62 681.657 1720.23 670.557 Q1717.88 674.041 1714.28 675.905 Q1710.67 677.768 1706.3 677.768 Q1697.22 677.768 1691.92 672.299 Q1686.65 666.79 1686.65 657.27 Q1686.65 647.953 1692.16 642.323 Q1697.67 636.692 1706.82 636.692 Q1717.31 636.692 1722.82 644.753 Q1728.37 652.774 1728.37 668.086 Q1728.37 682.386 1721.57 690.933 Q1714.8 699.44 1703.34 699.44 Q1700.26 699.44 1697.1 698.833 Q1693.94 698.225 1690.54 697.01 M1706.82 671.367 Q1712.33 671.367 1715.53 667.6 Q1718.77 663.833 1718.77 657.27 Q1718.77 650.748 1715.53 646.981 Q1712.33 643.173 1706.82 643.173 Q1701.31 643.173 1698.07 646.981 Q1694.87 650.748 1694.87 657.27 Q1694.87 663.833 1698.07 667.6 Q1701.31 671.367 1706.82 671.367 Z" fill="#000000" fill-rule="nonzero" fill-opacity="1" /><path clip-path="url(#clip120)" d="M1792.55 635.107 Q1786.23 635.107 1783.03 641.345 Q1779.87 647.543 1779.87 660.02 Q1779.87 672.456 1783.03 678.695 Q1786.23 684.893 1792.55 684.893 Q1798.91 684.893 1802.07 678.695 Q1805.27 672.456 1805.27 660.02 Q1805.27 647.543 1802.07 641.345 Q1798.91 635.107 1792.55 635.107 M1792.55 628.626 Q1802.72 628.626 1808.07 636.687 Q1813.46 644.708 1813.46 660.02 Q1813.46 675.292 1808.07 683.353 Q1802.72 691.374 1792.55 691.374 Q1782.38 691.374 1777 683.353 Q1771.65 675.292 1771.65 660.02 Q1771.65 644.708 1777 636.687 Q1782.38 628.626 1792.55 628.626 Z" fill="#000000" fill-rule="nonzero" fill-opacity="1" /><path clip-path="url(#clip120)" d="M1827.84 679.91 L1836.38 679.91 L1836.38 690.199 L1827.84 690.199 L1827.84 679.91 Z" fill="#000000" fill-rule="nonzero" fill-opacity="1" /><path clip-path="url(#clip120)" d="M1854.29 629.719 L1886.41 629.719 L1886.41 636.606 L1861.78 636.606 L1861.78 651.432 Q1863.56 650.825 1865.35 650.541 Q1867.13 650.217 1868.91 650.217 Q1879.04 650.217 1884.95 655.767 Q1890.87 661.316 1890.87 670.795 Q1890.87 680.558 1884.79 685.986 Q1878.72 691.374 1867.66 691.374 Q1863.85 691.374 1859.88 690.726 Q1855.95 690.078 1851.74 688.782 L1851.74 680.558 Q1855.38 682.543 1859.27 683.515 Q1863.16 684.488 1867.49 684.488 Q1874.5 684.488 1878.59 680.801 Q1882.69 677.115 1882.69 670.795 Q1882.69 664.476 1878.59 660.79 Q1874.5 657.103 1867.49 657.103 Q1864.21 657.103 1860.93 657.833 Q1857.69 658.562 1854.29 660.101 L1854.29 629.719 Z" fill="#000000" fill-rule="nonzero" fill-opacity="1" /><path clip-path="url(#clip120)" d="M1924.49 635.107 Q1918.17 635.107 1914.97 641.345 Q1911.81 647.543 1911.81 660.02 Q1911.81 672.456 1914.97 678.695 Q1918.17 684.893 1924.49 684.893 Q1930.85 684.893 1934.01 678.695 Q1937.21 672.456 1937.21 660.02 Q1937.21 647.543 1934.01 641.345 Q1930.85 635.107 1924.49 635.107 M1924.49 628.626 Q1934.66 628.626 1940.01 636.687 Q1945.39 644.708 1945.39 660.02 Q1945.39 675.292 1940.01 683.353 Q1934.66 691.374 1924.49 691.374 Q1914.32 691.374 1908.93 683.353 Q1903.59 675.292 1903.59 660.02 Q1903.59 644.708 1908.93 636.687 Q1914.32 628.626 1924.49 628.626 Z" fill="#000000" fill-rule="nonzero" fill-opacity="1" /><path clip-path="url(#clip120)" d="M1959.85 629.719 L1991.98 629.719 L1991.98 636.606 L1967.35 636.606 L1967.35 651.432 Q1969.13 650.825 1970.91 650.541 Q1972.7 650.217 1974.48 650.217 Q1984.61 650.217 1990.52 655.767 Q1996.43 661.316 1996.43 670.795 Q1996.43 680.558 1990.36 685.986 Q1984.28 691.374 1973.22 691.374 Q1969.41 691.374 1965.44 690.726 Q1961.52 690.078 1957.3 688.782 L1957.3 680.558 Q1960.95 682.543 1964.84 683.515 Q1968.73 684.488 1973.06 684.488 Q1980.07 684.488 1984.16 680.801 Q1988.25 677.115 1988.25 670.795 Q1988.25 664.476 1984.16 660.79 Q1980.07 657.103 1973.06 657.103 Q1969.78 657.103 1966.5 657.833 Q1963.26 658.562 1959.85 660.101 L1959.85 629.719 Z" fill="#000000" fill-rule="nonzero" fill-opacity="1" /><path clip-path="url(#clip120)" d="M2010.49 629.719 L2049.38 629.719 L2049.38 633.203 L2027.42 690.199 L2018.88 690.199 L2039.54 636.606 L2010.49 636.606 L2010.49 629.719 Z" fill="#000000" fill-rule="nonzero" fill-opacity="1" /><path clip-path="url(#clip120)" d="M2141.29 649.223 Q2134.97 649.223 2131.77 655.461 Q2128.61 661.659 2128.61 674.136 Q2128.61 686.572 2131.77 692.811 Q2134.97 699.008 2141.29 699.008 Q2147.65 699.008 2150.81 692.811 Q2154.01 686.572 2154.01 674.136 Q2154.01 661.659 2150.81 655.461 Q2147.65 649.223 2141.29 649.223 M2141.29 642.741 Q2151.45 642.741 2156.8 650.803 Q2162.19 658.823 2162.19 674.136 Q2162.19 689.408 2156.8 697.469 Q2151.45 705.49 2141.29 705.49 Q2131.12 705.49 2125.73 697.469 Q2120.38 689.408 2120.38 674.136 Q2120.38 658.823 2125.73 650.803 Q2131.12 642.741 2141.29 642.741 Z" fill="#000000" fill-rule="nonzero" fill-opacity="1" /><path clip-path="url(#clip120)" d="M2176.57 694.026 L2185.12 694.026 L2185.12 704.315 L2176.57 704.315 L2176.57 694.026 Z" fill="#000000" fill-rule="nonzero" fill-opacity="1" /><path clip-path="url(#clip120)" d="M2225.42 650.965 L2204.76 683.25 L2225.42 683.25 L2225.42 650.965 M2223.28 643.835 L2233.57 643.835 L2233.57 683.25 L2242.19 683.25 L2242.19 690.056 L2233.57 690.056 L2233.57 704.315 L2225.42 704.315 L2225.42 690.056 L2198.12 690.056 L2198.12 682.157 L2223.28 643.835 Z" fill="#000000" fill-rule="nonzero" fill-opacity="1" /><path clip-path="url(#clip120)" d="M2255.97 703.059 L2255.97 695.606 Q2259.05 697.064 2262.21 697.834 Q2265.37 698.603 2268.4 698.603 Q2276.51 698.603 2280.76 693.175 Q2285.05 687.706 2285.66 676.607 Q2283.31 680.091 2279.71 681.954 Q2276.1 683.818 2271.72 683.818 Q2262.65 683.818 2257.34 678.349 Q2252.08 672.84 2252.08 663.32 Q2252.08 654.003 2257.59 648.372 Q2263.1 642.741 2272.25 642.741 Q2282.74 642.741 2288.25 650.803 Q2293.8 658.823 2293.8 674.136 Q2293.8 688.436 2287 696.983 Q2280.23 705.49 2268.77 705.49 Q2265.69 705.49 2262.53 704.882 Q2259.37 704.275 2255.97 703.059 M2272.25 677.417 Q2277.76 677.417 2280.96 673.65 Q2284.2 669.882 2284.2 663.32 Q2284.2 656.798 2280.96 653.031 Q2277.76 649.223 2272.25 649.223 Q2266.74 649.223 2263.5 653.031 Q2260.3 656.798 2260.3 663.32 Q2260.3 669.882 2263.5 673.65 Q2266.74 677.417 2272.25 677.417 Z" fill="#000000" fill-rule="nonzero" fill-opacity="1" /><path clip-path="url(#clip120)" d="M2330.99 650.965 L2310.33 683.25 L2330.99 683.25 L2330.99 650.965 M2328.84 643.835 L2339.13 643.835 L2339.13 683.25 L2347.76 683.25 L2347.76 690.056 L2339.13 690.056 L2339.13 704.315 L2330.99 704.315 L2330.99 690.056 L2303.69 690.056 L2303.69 682.157 L2328.84 643.835 Z" fill="#000000" fill-rule="nonzero" fill-opacity="1" /></svg>
