<?xml version="1.0" encoding="utf-8"?>
<svg xmlns="http://www.w3.org/2000/svg" xmlns:xlink="http://www.w3.org/1999/xlink" width="600" height="400" viewBox="0 0 2400 1600">
<defs>
  <clipPath id="clip660">
    <rect x="0" y="0" width="2400" height="1600"/>
  </clipPath>
</defs>
<path clip-path="url(#clip660)" d="M0 1600 L2400 1600 L2400 0 L0 0  Z" fill="#ffffff" fill-rule="evenodd" fill-opacity="1"/>
<defs>
  <clipPath id="clip661">
    <rect x="480" y="0" width="1681" height="1600"/>
  </clipPath>
</defs>
<path clip-path="url(#clip660)" d="M249.542 1423.18 L2352.76 1423.18 L2352.76 123.472 L249.542 123.472  Z" fill="#ffffff" fill-rule="evenodd" fill-opacity="1"/>
<defs>
  <clipPath id="clip662">
    <rect x="249" y="123" width="2104" height="1301"/>
  </clipPath>
</defs>
<polyline clip-path="url(#clip662)" style="stroke:#000000; stroke-linecap:round; stroke-linejoin:round; stroke-width:2; stroke-opacity:0.1; fill:none" points="307.079,1423.18 307.079,123.472 "/>
<polyline clip-path="url(#clip662)" style="stroke:#000000; stroke-linecap:round; stroke-linejoin:round; stroke-width:2; stroke-opacity:0.1; fill:none" points="804.114,1423.18 804.114,123.472 "/>
<polyline clip-path="url(#clip662)" style="stroke:#000000; stroke-linecap:round; stroke-linejoin:round; stroke-width:2; stroke-opacity:0.1; fill:none" points="1301.15,1423.18 1301.15,123.472 "/>
<polyline clip-path="url(#clip662)" style="stroke:#000000; stroke-linecap:round; stroke-linejoin:round; stroke-width:2; stroke-opacity:0.1; fill:none" points="1798.18,1423.18 1798.18,123.472 "/>
<polyline clip-path="url(#clip662)" style="stroke:#000000; stroke-linecap:round; stroke-linejoin:round; stroke-width:2; stroke-opacity:0.1; fill:none" points="2295.22,1423.18 2295.22,123.472 "/>
<polyline clip-path="url(#clip662)" style="stroke:#000000; stroke-linecap:round; stroke-linejoin:round; stroke-width:2; stroke-opacity:0.1; fill:none" points="249.542,1386.4 2352.76,1386.4 "/>
<polyline clip-path="url(#clip662)" style="stroke:#000000; stroke-linecap:round; stroke-linejoin:round; stroke-width:2; stroke-opacity:0.1; fill:none" points="249.542,1079.86 2352.76,1079.86 "/>
<polyline clip-path="url(#clip662)" style="stroke:#000000; stroke-linecap:round; stroke-linejoin:round; stroke-width:2; stroke-opacity:0.1; fill:none" points="249.542,773.326 2352.76,773.326 "/>
<polyline clip-path="url(#clip662)" style="stroke:#000000; stroke-linecap:round; stroke-linejoin:round; stroke-width:2; stroke-opacity:0.1; fill:none" points="249.542,466.791 2352.76,466.791 "/>
<polyline clip-path="url(#clip662)" style="stroke:#000000; stroke-linecap:round; stroke-linejoin:round; stroke-width:2; stroke-opacity:0.1; fill:none" points="249.542,160.256 2352.76,160.256 "/>
<polyline clip-path="url(#clip660)" style="stroke:#000000; stroke-linecap:round; stroke-linejoin:round; stroke-width:4; stroke-opacity:1; fill:none" points="249.542,1423.18 2352.76,1423.18 "/>
<polyline clip-path="url(#clip660)" style="stroke:#000000; stroke-linecap:round; stroke-linejoin:round; stroke-width:4; stroke-opacity:1; fill:none" points="307.079,1423.18 307.079,1404.28 "/>
<polyline clip-path="url(#clip660)" style="stroke:#000000; stroke-linecap:round; stroke-linejoin:round; stroke-width:4; stroke-opacity:1; fill:none" points="804.114,1423.18 804.114,1404.28 "/>
<polyline clip-path="url(#clip660)" style="stroke:#000000; stroke-linecap:round; stroke-linejoin:round; stroke-width:4; stroke-opacity:1; fill:none" points="1301.15,1423.18 1301.15,1404.28 "/>
<polyline clip-path="url(#clip660)" style="stroke:#000000; stroke-linecap:round; stroke-linejoin:round; stroke-width:4; stroke-opacity:1; fill:none" points="1798.18,1423.18 1798.18,1404.28 "/>
<polyline clip-path="url(#clip660)" style="stroke:#000000; stroke-linecap:round; stroke-linejoin:round; stroke-width:4; stroke-opacity:1; fill:none" points="2295.22,1423.18 2295.22,1404.28 "/>
<path clip-path="url(#clip660)" d="M269.382 1454.1 Q265.771 1454.1 263.942 1457.66 Q262.137 1461.2 262.137 1468.33 Q262.137 1475.44 263.942 1479.01 Q265.771 1482.55 269.382 1482.55 Q273.016 1482.55 274.822 1479.01 Q276.651 1475.44 276.651 1468.33 Q276.651 1461.2 274.822 1457.66 Q273.016 1454.1 269.382 1454.1 M269.382 1450.39 Q275.192 1450.39 278.248 1455 Q281.327 1459.58 281.327 1468.33 Q281.327 1477.06 278.248 1481.67 Q275.192 1486.25 269.382 1486.25 Q263.572 1486.25 260.493 1481.67 Q257.438 1477.06 257.438 1468.33 Q257.438 1459.58 260.493 1455 Q263.572 1450.39 269.382 1450.39 Z" fill="#000000" fill-rule="nonzero" fill-opacity="1" /><path clip-path="url(#clip660)" d="M289.544 1479.7 L294.428 1479.7 L294.428 1485.58 L289.544 1485.58 L289.544 1479.7 Z" fill="#000000" fill-rule="nonzero" fill-opacity="1" /><path clip-path="url(#clip660)" d="M314.613 1454.1 Q311.002 1454.1 309.174 1457.66 Q307.368 1461.2 307.368 1468.33 Q307.368 1475.44 309.174 1479.01 Q311.002 1482.55 314.613 1482.55 Q318.248 1482.55 320.053 1479.01 Q321.882 1475.44 321.882 1468.33 Q321.882 1461.2 320.053 1457.66 Q318.248 1454.1 314.613 1454.1 M314.613 1450.39 Q320.424 1450.39 323.479 1455 Q326.558 1459.58 326.558 1468.33 Q326.558 1477.06 323.479 1481.67 Q320.424 1486.25 314.613 1486.25 Q308.803 1486.25 305.725 1481.67 Q302.669 1477.06 302.669 1468.33 Q302.669 1459.58 305.725 1455 Q308.803 1450.39 314.613 1450.39 Z" fill="#000000" fill-rule="nonzero" fill-opacity="1" /><path clip-path="url(#clip660)" d="M344.775 1454.1 Q341.164 1454.1 339.336 1457.66 Q337.53 1461.2 337.53 1468.33 Q337.53 1475.44 339.336 1479.01 Q341.164 1482.55 344.775 1482.55 Q348.41 1482.55 350.215 1479.01 Q352.044 1475.44 352.044 1468.33 Q352.044 1461.2 350.215 1457.66 Q348.41 1454.1 344.775 1454.1 M344.775 1450.39 Q350.586 1450.39 353.641 1455 Q356.72 1459.58 356.72 1468.33 Q356.72 1477.06 353.641 1481.67 Q350.586 1486.25 344.775 1486.25 Q338.965 1486.25 335.887 1481.67 Q332.831 1477.06 332.831 1468.33 Q332.831 1459.58 335.887 1455 Q338.965 1450.39 344.775 1450.39 Z" fill="#000000" fill-rule="nonzero" fill-opacity="1" /><path clip-path="url(#clip660)" d="M766.915 1454.1 Q763.304 1454.1 761.475 1457.66 Q759.67 1461.2 759.67 1468.33 Q759.67 1475.44 761.475 1479.01 Q763.304 1482.55 766.915 1482.55 Q770.549 1482.55 772.355 1479.01 Q774.183 1475.44 774.183 1468.33 Q774.183 1461.2 772.355 1457.66 Q770.549 1454.1 766.915 1454.1 M766.915 1450.39 Q772.725 1450.39 775.781 1455 Q778.859 1459.58 778.859 1468.33 Q778.859 1477.06 775.781 1481.67 Q772.725 1486.25 766.915 1486.25 Q761.105 1486.25 758.026 1481.67 Q754.971 1477.06 754.971 1468.33 Q754.971 1459.58 758.026 1455 Q761.105 1450.39 766.915 1450.39 Z" fill="#000000" fill-rule="nonzero" fill-opacity="1" /><path clip-path="url(#clip660)" d="M787.077 1479.7 L791.961 1479.7 L791.961 1485.58 L787.077 1485.58 L787.077 1479.7 Z" fill="#000000" fill-rule="nonzero" fill-opacity="1" /><path clip-path="url(#clip660)" d="M806.174 1481.64 L822.493 1481.64 L822.493 1485.58 L800.549 1485.58 L800.549 1481.64 Q803.211 1478.89 807.794 1474.26 Q812.401 1469.61 813.581 1468.27 Q815.827 1465.74 816.706 1464.01 Q817.609 1462.25 817.609 1460.56 Q817.609 1457.8 815.665 1456.07 Q813.743 1454.33 810.642 1454.33 Q808.443 1454.33 805.989 1455.09 Q803.558 1455.86 800.781 1457.41 L800.781 1452.69 Q803.605 1451.55 806.058 1450.97 Q808.512 1450.39 810.549 1450.39 Q815.919 1450.39 819.114 1453.08 Q822.308 1455.77 822.308 1460.26 Q822.308 1462.39 821.498 1464.31 Q820.711 1466.2 818.605 1468.8 Q818.026 1469.47 814.924 1472.69 Q811.822 1475.88 806.174 1481.64 Z" fill="#000000" fill-rule="nonzero" fill-opacity="1" /><path clip-path="url(#clip660)" d="M832.354 1451.02 L850.711 1451.02 L850.711 1454.96 L836.637 1454.96 L836.637 1463.43 Q837.655 1463.08 838.674 1462.92 Q839.692 1462.73 840.711 1462.73 Q846.498 1462.73 849.878 1465.9 Q853.257 1469.08 853.257 1474.49 Q853.257 1480.07 849.785 1483.17 Q846.313 1486.25 839.993 1486.25 Q837.817 1486.25 835.549 1485.88 Q833.304 1485.51 830.896 1484.77 L830.896 1480.07 Q832.979 1481.2 835.202 1481.76 Q837.424 1482.32 839.901 1482.32 Q843.905 1482.32 846.243 1480.21 Q848.581 1478.1 848.581 1474.49 Q848.581 1470.88 846.243 1468.77 Q843.905 1466.67 839.901 1466.67 Q838.026 1466.67 836.151 1467.08 Q834.299 1467.5 832.354 1468.38 L832.354 1451.02 Z" fill="#000000" fill-rule="nonzero" fill-opacity="1" /><path clip-path="url(#clip660)" d="M1263.45 1454.1 Q1259.84 1454.1 1258.01 1457.66 Q1256.21 1461.2 1256.21 1468.33 Q1256.21 1475.44 1258.01 1479.01 Q1259.84 1482.55 1263.45 1482.55 Q1267.09 1482.55 1268.89 1479.01 Q1270.72 1475.44 1270.72 1468.33 Q1270.72 1461.2 1268.89 1457.66 Q1267.09 1454.1 1263.45 1454.1 M1263.45 1450.39 Q1269.26 1450.39 1272.32 1455 Q1275.4 1459.58 1275.4 1468.33 Q1275.4 1477.06 1272.32 1481.67 Q1269.26 1486.25 1263.45 1486.25 Q1257.64 1486.25 1254.56 1481.67 Q1251.51 1477.06 1251.51 1468.33 Q1251.51 1459.58 1254.56 1455 Q1257.64 1450.39 1263.45 1450.39 Z" fill="#000000" fill-rule="nonzero" fill-opacity="1" /><path clip-path="url(#clip660)" d="M1283.61 1479.7 L1288.5 1479.7 L1288.5 1485.58 L1283.61 1485.58 L1283.61 1479.7 Z" fill="#000000" fill-rule="nonzero" fill-opacity="1" /><path clip-path="url(#clip660)" d="M1298.73 1451.02 L1317.09 1451.02 L1317.09 1454.96 L1303.01 1454.96 L1303.01 1463.43 Q1304.03 1463.08 1305.05 1462.92 Q1306.07 1462.73 1307.09 1462.73 Q1312.87 1462.73 1316.25 1465.9 Q1319.63 1469.08 1319.63 1474.49 Q1319.63 1480.07 1316.16 1483.17 Q1312.69 1486.25 1306.37 1486.25 Q1304.19 1486.25 1301.92 1485.88 Q1299.68 1485.51 1297.27 1484.77 L1297.27 1480.07 Q1299.35 1481.2 1301.58 1481.76 Q1303.8 1482.32 1306.28 1482.32 Q1310.28 1482.32 1312.62 1480.21 Q1314.96 1478.1 1314.96 1474.49 Q1314.96 1470.88 1312.62 1468.77 Q1310.28 1466.67 1306.28 1466.67 Q1304.4 1466.67 1302.53 1467.08 Q1300.67 1467.5 1298.73 1468.38 L1298.73 1451.02 Z" fill="#000000" fill-rule="nonzero" fill-opacity="1" /><path clip-path="url(#clip660)" d="M1338.85 1454.1 Q1335.23 1454.1 1333.41 1457.66 Q1331.6 1461.2 1331.6 1468.33 Q1331.6 1475.44 1333.41 1479.01 Q1335.23 1482.55 1338.85 1482.55 Q1342.48 1482.55 1344.29 1479.01 Q1346.11 1475.44 1346.11 1468.33 Q1346.11 1461.2 1344.29 1457.66 Q1342.48 1454.1 1338.85 1454.1 M1338.85 1450.39 Q1344.66 1450.39 1347.71 1455 Q1350.79 1459.58 1350.79 1468.33 Q1350.79 1477.06 1347.71 1481.67 Q1344.66 1486.25 1338.85 1486.25 Q1333.04 1486.25 1329.96 1481.67 Q1326.9 1477.06 1326.9 1468.33 Q1326.9 1459.58 1329.96 1455 Q1333.04 1450.39 1338.85 1450.39 Z" fill="#000000" fill-rule="nonzero" fill-opacity="1" /><path clip-path="url(#clip660)" d="M1760.99 1454.1 Q1757.37 1454.1 1755.55 1457.66 Q1753.74 1461.2 1753.74 1468.33 Q1753.74 1475.44 1755.55 1479.01 Q1757.37 1482.55 1760.99 1482.55 Q1764.62 1482.55 1766.42 1479.01 Q1768.25 1475.44 1768.25 1468.33 Q1768.25 1461.2 1766.42 1457.66 Q1764.62 1454.1 1760.99 1454.1 M1760.99 1450.39 Q1766.8 1450.39 1769.85 1455 Q1772.93 1459.58 1772.93 1468.33 Q1772.93 1477.06 1769.85 1481.67 Q1766.8 1486.25 1760.99 1486.25 Q1755.18 1486.25 1752.1 1481.67 Q1749.04 1477.06 1749.04 1468.33 Q1749.04 1459.58 1752.1 1455 Q1755.18 1450.39 1760.99 1450.39 Z" fill="#000000" fill-rule="nonzero" fill-opacity="1" /><path clip-path="url(#clip660)" d="M1781.15 1479.7 L1786.03 1479.7 L1786.03 1485.58 L1781.15 1485.58 L1781.15 1479.7 Z" fill="#000000" fill-rule="nonzero" fill-opacity="1" /><path clip-path="url(#clip660)" d="M1795.04 1451.02 L1817.26 1451.02 L1817.26 1453.01 L1804.71 1485.58 L1799.83 1485.58 L1811.63 1454.96 L1795.04 1454.96 L1795.04 1451.02 Z" fill="#000000" fill-rule="nonzero" fill-opacity="1" /><path clip-path="url(#clip660)" d="M1826.42 1451.02 L1844.78 1451.02 L1844.78 1454.96 L1830.71 1454.96 L1830.71 1463.43 Q1831.73 1463.08 1832.74 1462.92 Q1833.76 1462.73 1834.78 1462.73 Q1840.57 1462.73 1843.95 1465.9 Q1847.33 1469.08 1847.33 1474.49 Q1847.33 1480.07 1843.86 1483.17 Q1840.38 1486.25 1834.06 1486.25 Q1831.89 1486.25 1829.62 1485.88 Q1827.37 1485.51 1824.97 1484.77 L1824.97 1480.07 Q1827.05 1481.2 1829.27 1481.76 Q1831.49 1482.32 1833.97 1482.32 Q1837.98 1482.32 1840.31 1480.21 Q1842.65 1478.1 1842.65 1474.49 Q1842.65 1470.88 1840.31 1468.77 Q1837.98 1466.67 1833.97 1466.67 Q1832.1 1466.67 1830.22 1467.08 Q1828.37 1467.5 1826.42 1468.38 L1826.42 1451.02 Z" fill="#000000" fill-rule="nonzero" fill-opacity="1" /><path clip-path="url(#clip660)" d="M2247.29 1481.64 L2254.93 1481.64 L2254.93 1455.28 L2246.62 1456.95 L2246.62 1452.69 L2254.88 1451.02 L2259.56 1451.02 L2259.56 1481.64 L2267.2 1481.64 L2267.2 1485.58 L2247.29 1485.58 L2247.29 1481.64 Z" fill="#000000" fill-rule="nonzero" fill-opacity="1" /><path clip-path="url(#clip660)" d="M2276.64 1479.7 L2281.53 1479.7 L2281.53 1485.58 L2276.64 1485.58 L2276.64 1479.7 Z" fill="#000000" fill-rule="nonzero" fill-opacity="1" /><path clip-path="url(#clip660)" d="M2301.71 1454.1 Q2298.1 1454.1 2296.27 1457.66 Q2294.47 1461.2 2294.47 1468.33 Q2294.47 1475.44 2296.27 1479.01 Q2298.1 1482.55 2301.71 1482.55 Q2305.35 1482.55 2307.15 1479.01 Q2308.98 1475.44 2308.98 1468.33 Q2308.98 1461.2 2307.15 1457.66 Q2305.35 1454.1 2301.71 1454.1 M2301.71 1450.39 Q2307.52 1450.39 2310.58 1455 Q2313.66 1459.58 2313.66 1468.33 Q2313.66 1477.06 2310.58 1481.67 Q2307.52 1486.25 2301.71 1486.25 Q2295.9 1486.25 2292.82 1481.67 Q2289.77 1477.06 2289.77 1468.33 Q2289.77 1459.58 2292.82 1455 Q2295.9 1450.39 2301.71 1450.39 Z" fill="#000000" fill-rule="nonzero" fill-opacity="1" /><path clip-path="url(#clip660)" d="M2331.87 1454.1 Q2328.26 1454.1 2326.43 1457.66 Q2324.63 1461.2 2324.63 1468.33 Q2324.63 1475.44 2326.43 1479.01 Q2328.26 1482.55 2331.87 1482.55 Q2335.51 1482.55 2337.31 1479.01 Q2339.14 1475.44 2339.14 1468.33 Q2339.14 1461.2 2337.31 1457.66 Q2335.51 1454.1 2331.87 1454.1 M2331.87 1450.39 Q2337.68 1450.39 2340.74 1455 Q2343.82 1459.58 2343.82 1468.33 Q2343.82 1477.06 2340.74 1481.67 Q2337.68 1486.25 2331.87 1486.25 Q2326.06 1486.25 2322.99 1481.67 Q2319.93 1477.06 2319.93 1468.33 Q2319.93 1459.58 2322.99 1455 Q2326.06 1450.39 2331.87 1450.39 Z" fill="#000000" fill-rule="nonzero" fill-opacity="1" /><path clip-path="url(#clip660)" d="M1291.09 1562.7 L1291.09 1581.6 L1285.2 1581.6 L1285.2 1532.4 L1291.09 1532.4 L1291.09 1537.81 Q1292.94 1534.62 1295.74 1533.1 Q1298.57 1531.54 1302.49 1531.54 Q1308.98 1531.54 1313.02 1536.69 Q1317.1 1541.85 1317.1 1550.25 Q1317.1 1558.65 1313.02 1563.81 Q1308.98 1568.97 1302.49 1568.97 Q1298.57 1568.97 1295.74 1567.44 Q1292.94 1565.88 1291.09 1562.7 M1311.02 1550.25 Q1311.02 1543.79 1308.34 1540.13 Q1305.7 1536.44 1301.05 1536.44 Q1296.41 1536.44 1293.73 1540.13 Q1291.09 1543.79 1291.09 1550.25 Q1291.09 1556.71 1293.73 1560.4 Q1296.41 1564.07 1301.05 1564.07 Q1305.7 1564.07 1308.34 1560.4 Q1311.02 1556.71 1311.02 1550.25 Z" fill="#000000" fill-rule="nonzero" fill-opacity="1" /><polyline clip-path="url(#clip660)" style="stroke:#000000; stroke-linecap:round; stroke-linejoin:round; stroke-width:4; stroke-opacity:1; fill:none" points="249.542,1423.18 249.542,123.472 "/>
<polyline clip-path="url(#clip660)" style="stroke:#000000; stroke-linecap:round; stroke-linejoin:round; stroke-width:4; stroke-opacity:1; fill:none" points="249.542,1386.4 268.44,1386.4 "/>
<polyline clip-path="url(#clip660)" style="stroke:#000000; stroke-linecap:round; stroke-linejoin:round; stroke-width:4; stroke-opacity:1; fill:none" points="249.542,1079.86 268.44,1079.86 "/>
<polyline clip-path="url(#clip660)" style="stroke:#000000; stroke-linecap:round; stroke-linejoin:round; stroke-width:4; stroke-opacity:1; fill:none" points="249.542,773.326 268.44,773.326 "/>
<polyline clip-path="url(#clip660)" style="stroke:#000000; stroke-linecap:round; stroke-linejoin:round; stroke-width:4; stroke-opacity:1; fill:none" points="249.542,466.791 268.44,466.791 "/>
<polyline clip-path="url(#clip660)" style="stroke:#000000; stroke-linecap:round; stroke-linejoin:round; stroke-width:4; stroke-opacity:1; fill:none" points="249.542,160.256 268.44,160.256 "/>
<path clip-path="url(#clip660)" d="M126.205 1372.19 Q122.593 1372.19 120.765 1375.76 Q118.959 1379.3 118.959 1386.43 Q118.959 1393.54 120.765 1397.1 Q122.593 1400.64 126.205 1400.64 Q129.839 1400.64 131.644 1397.1 Q133.473 1393.54 133.473 1386.43 Q133.473 1379.3 131.644 1375.76 Q129.839 1372.19 126.205 1372.19 M126.205 1368.49 Q132.015 1368.49 135.07 1373.1 Q138.149 1377.68 138.149 1386.43 Q138.149 1395.16 135.07 1399.76 Q132.015 1404.35 126.205 1404.35 Q120.394 1404.35 117.316 1399.76 Q114.26 1395.16 114.26 1386.43 Q114.26 1377.68 117.316 1373.1 Q120.394 1368.49 126.205 1368.49 Z" fill="#000000" fill-rule="nonzero" fill-opacity="1" /><path clip-path="url(#clip660)" d="M146.366 1397.8 L151.251 1397.8 L151.251 1403.68 L146.366 1403.68 L146.366 1397.8 Z" fill="#000000" fill-rule="nonzero" fill-opacity="1" /><path clip-path="url(#clip660)" d="M171.436 1372.19 Q167.825 1372.19 165.996 1375.76 Q164.19 1379.3 164.19 1386.43 Q164.19 1393.54 165.996 1397.1 Q167.825 1400.64 171.436 1400.64 Q175.07 1400.64 176.876 1397.1 Q178.704 1393.54 178.704 1386.43 Q178.704 1379.3 176.876 1375.76 Q175.07 1372.19 171.436 1372.19 M171.436 1368.49 Q177.246 1368.49 180.301 1373.1 Q183.38 1377.68 183.38 1386.43 Q183.38 1395.16 180.301 1399.76 Q177.246 1404.35 171.436 1404.35 Q165.626 1404.35 162.547 1399.76 Q159.491 1395.16 159.491 1386.43 Q159.491 1377.68 162.547 1373.1 Q165.626 1368.49 171.436 1368.49 Z" fill="#000000" fill-rule="nonzero" fill-opacity="1" /><path clip-path="url(#clip660)" d="M201.598 1372.19 Q197.987 1372.19 196.158 1375.76 Q194.352 1379.3 194.352 1386.43 Q194.352 1393.54 196.158 1397.1 Q197.987 1400.64 201.598 1400.64 Q205.232 1400.64 207.037 1397.1 Q208.866 1393.54 208.866 1386.43 Q208.866 1379.3 207.037 1375.76 Q205.232 1372.19 201.598 1372.19 M201.598 1368.49 Q207.408 1368.49 210.463 1373.1 Q213.542 1377.68 213.542 1386.43 Q213.542 1395.16 210.463 1399.76 Q207.408 1404.35 201.598 1404.35 Q195.787 1404.35 192.709 1399.76 Q189.653 1395.16 189.653 1386.43 Q189.653 1377.68 192.709 1373.1 Q195.787 1368.49 201.598 1368.49 Z" fill="#000000" fill-rule="nonzero" fill-opacity="1" /><path clip-path="url(#clip660)" d="M127.2 1065.66 Q123.589 1065.66 121.76 1069.22 Q119.955 1072.77 119.955 1079.9 Q119.955 1087 121.76 1090.57 Q123.589 1094.11 127.2 1094.11 Q130.834 1094.11 132.64 1090.57 Q134.468 1087 134.468 1079.9 Q134.468 1072.77 132.64 1069.22 Q130.834 1065.66 127.2 1065.66 M127.2 1061.96 Q133.01 1061.96 136.066 1066.56 Q139.144 1071.15 139.144 1079.9 Q139.144 1088.62 136.066 1093.23 Q133.01 1097.81 127.2 1097.81 Q121.39 1097.81 118.311 1093.23 Q115.256 1088.62 115.256 1079.9 Q115.256 1071.15 118.311 1066.56 Q121.39 1061.96 127.2 1061.96 Z" fill="#000000" fill-rule="nonzero" fill-opacity="1" /><path clip-path="url(#clip660)" d="M147.362 1091.26 L152.246 1091.26 L152.246 1097.14 L147.362 1097.14 L147.362 1091.26 Z" fill="#000000" fill-rule="nonzero" fill-opacity="1" /><path clip-path="url(#clip660)" d="M166.459 1093.21 L182.778 1093.21 L182.778 1097.14 L160.834 1097.14 L160.834 1093.21 Q163.496 1090.45 168.079 1085.82 Q172.686 1081.17 173.866 1079.83 Q176.112 1077.3 176.991 1075.57 Q177.894 1073.81 177.894 1072.12 Q177.894 1069.36 175.95 1067.63 Q174.028 1065.89 170.927 1065.89 Q168.727 1065.89 166.274 1066.65 Q163.843 1067.42 161.065 1068.97 L161.065 1064.25 Q163.89 1063.11 166.343 1062.53 Q168.797 1061.96 170.834 1061.96 Q176.204 1061.96 179.399 1064.64 Q182.593 1067.33 182.593 1071.82 Q182.593 1073.95 181.783 1075.87 Q180.996 1077.77 178.889 1080.36 Q178.311 1081.03 175.209 1084.25 Q172.107 1087.44 166.459 1093.21 Z" fill="#000000" fill-rule="nonzero" fill-opacity="1" /><path clip-path="url(#clip660)" d="M192.639 1062.58 L210.996 1062.58 L210.996 1066.52 L196.922 1066.52 L196.922 1074.99 Q197.94 1074.64 198.959 1074.48 Q199.977 1074.29 200.996 1074.29 Q206.783 1074.29 210.162 1077.47 Q213.542 1080.64 213.542 1086.05 Q213.542 1091.63 210.07 1094.73 Q206.598 1097.81 200.278 1097.81 Q198.102 1097.81 195.834 1097.44 Q193.588 1097.07 191.181 1096.33 L191.181 1091.63 Q193.264 1092.77 195.487 1093.32 Q197.709 1093.88 200.186 1093.88 Q204.19 1093.88 206.528 1091.77 Q208.866 1089.66 208.866 1086.05 Q208.866 1082.44 206.528 1080.34 Q204.19 1078.23 200.186 1078.23 Q198.311 1078.23 196.436 1078.65 Q194.584 1079.06 192.639 1079.94 L192.639 1062.58 Z" fill="#000000" fill-rule="nonzero" fill-opacity="1" /><path clip-path="url(#clip660)" d="M126.205 759.125 Q122.593 759.125 120.765 762.689 Q118.959 766.231 118.959 773.361 Q118.959 780.467 120.765 784.032 Q122.593 787.574 126.205 787.574 Q129.839 787.574 131.644 784.032 Q133.473 780.467 133.473 773.361 Q133.473 766.231 131.644 762.689 Q129.839 759.125 126.205 759.125 M126.205 755.421 Q132.015 755.421 135.07 760.027 Q138.149 764.611 138.149 773.361 Q138.149 782.088 135.07 786.694 Q132.015 791.277 126.205 791.277 Q120.394 791.277 117.316 786.694 Q114.26 782.088 114.26 773.361 Q114.26 764.611 117.316 760.027 Q120.394 755.421 126.205 755.421 Z" fill="#000000" fill-rule="nonzero" fill-opacity="1" /><path clip-path="url(#clip660)" d="M146.366 784.726 L151.251 784.726 L151.251 790.606 L146.366 790.606 L146.366 784.726 Z" fill="#000000" fill-rule="nonzero" fill-opacity="1" /><path clip-path="url(#clip660)" d="M161.482 756.046 L179.839 756.046 L179.839 759.981 L165.765 759.981 L165.765 768.453 Q166.783 768.106 167.802 767.944 Q168.82 767.759 169.839 767.759 Q175.626 767.759 179.005 770.93 Q182.385 774.101 182.385 779.518 Q182.385 785.097 178.913 788.199 Q175.44 791.277 169.121 791.277 Q166.945 791.277 164.677 790.907 Q162.431 790.537 160.024 789.796 L160.024 785.097 Q162.107 786.231 164.329 786.787 Q166.552 787.342 169.028 787.342 Q173.033 787.342 175.371 785.236 Q177.709 783.129 177.709 779.518 Q177.709 775.907 175.371 773.801 Q173.033 771.694 169.028 771.694 Q167.153 771.694 165.278 772.111 Q163.427 772.527 161.482 773.407 L161.482 756.046 Z" fill="#000000" fill-rule="nonzero" fill-opacity="1" /><path clip-path="url(#clip660)" d="M201.598 759.125 Q197.987 759.125 196.158 762.689 Q194.352 766.231 194.352 773.361 Q194.352 780.467 196.158 784.032 Q197.987 787.574 201.598 787.574 Q205.232 787.574 207.037 784.032 Q208.866 780.467 208.866 773.361 Q208.866 766.231 207.037 762.689 Q205.232 759.125 201.598 759.125 M201.598 755.421 Q207.408 755.421 210.463 760.027 Q213.542 764.611 213.542 773.361 Q213.542 782.088 210.463 786.694 Q207.408 791.277 201.598 791.277 Q195.787 791.277 192.709 786.694 Q189.653 782.088 189.653 773.361 Q189.653 764.611 192.709 760.027 Q195.787 755.421 201.598 755.421 Z" fill="#000000" fill-rule="nonzero" fill-opacity="1" /><path clip-path="url(#clip660)" d="M127.2 452.59 Q123.589 452.59 121.76 456.155 Q119.955 459.696 119.955 466.826 Q119.955 473.932 121.76 477.497 Q123.589 481.039 127.2 481.039 Q130.834 481.039 132.64 477.497 Q134.468 473.932 134.468 466.826 Q134.468 459.696 132.64 456.155 Q130.834 452.59 127.2 452.59 M127.2 448.886 Q133.01 448.886 136.066 453.493 Q139.144 458.076 139.144 466.826 Q139.144 475.553 136.066 480.159 Q133.01 484.742 127.2 484.742 Q121.39 484.742 118.311 480.159 Q115.256 475.553 115.256 466.826 Q115.256 458.076 118.311 453.493 Q121.39 448.886 127.2 448.886 Z" fill="#000000" fill-rule="nonzero" fill-opacity="1" /><path clip-path="url(#clip660)" d="M147.362 478.192 L152.246 478.192 L152.246 484.071 L147.362 484.071 L147.362 478.192 Z" fill="#000000" fill-rule="nonzero" fill-opacity="1" /><path clip-path="url(#clip660)" d="M161.251 449.511 L183.473 449.511 L183.473 451.502 L170.927 484.071 L166.042 484.071 L177.848 453.446 L161.251 453.446 L161.251 449.511 Z" fill="#000000" fill-rule="nonzero" fill-opacity="1" /><path clip-path="url(#clip660)" d="M192.639 449.511 L210.996 449.511 L210.996 453.446 L196.922 453.446 L196.922 461.918 Q197.94 461.571 198.959 461.409 Q199.977 461.224 200.996 461.224 Q206.783 461.224 210.162 464.395 Q213.542 467.567 213.542 472.983 Q213.542 478.562 210.07 481.664 Q206.598 484.742 200.278 484.742 Q198.102 484.742 195.834 484.372 Q193.588 484.002 191.181 483.261 L191.181 478.562 Q193.264 479.696 195.487 480.252 Q197.709 480.807 200.186 480.807 Q204.19 480.807 206.528 478.701 Q208.866 476.594 208.866 472.983 Q208.866 469.372 206.528 467.266 Q204.19 465.159 200.186 465.159 Q198.311 465.159 196.436 465.576 Q194.584 465.993 192.639 466.872 L192.639 449.511 Z" fill="#000000" fill-rule="nonzero" fill-opacity="1" /><path clip-path="url(#clip660)" d="M117.015 173.601 L124.654 173.601 L124.654 147.236 L116.343 148.902 L116.343 144.643 L124.607 142.976 L129.283 142.976 L129.283 173.601 L136.922 173.601 L136.922 177.536 L117.015 177.536 L117.015 173.601 Z" fill="#000000" fill-rule="nonzero" fill-opacity="1" /><path clip-path="url(#clip660)" d="M146.366 171.657 L151.251 171.657 L151.251 177.536 L146.366 177.536 L146.366 171.657 Z" fill="#000000" fill-rule="nonzero" fill-opacity="1" /><path clip-path="url(#clip660)" d="M171.436 146.055 Q167.825 146.055 165.996 149.62 Q164.19 153.161 164.19 160.291 Q164.19 167.397 165.996 170.962 Q167.825 174.504 171.436 174.504 Q175.07 174.504 176.876 170.962 Q178.704 167.397 178.704 160.291 Q178.704 153.161 176.876 149.62 Q175.07 146.055 171.436 146.055 M171.436 142.351 Q177.246 142.351 180.301 146.958 Q183.38 151.541 183.38 160.291 Q183.38 169.018 180.301 173.624 Q177.246 178.208 171.436 178.208 Q165.626 178.208 162.547 173.624 Q159.491 169.018 159.491 160.291 Q159.491 151.541 162.547 146.958 Q165.626 142.351 171.436 142.351 Z" fill="#000000" fill-rule="nonzero" fill-opacity="1" /><path clip-path="url(#clip660)" d="M201.598 146.055 Q197.987 146.055 196.158 149.62 Q194.352 153.161 194.352 160.291 Q194.352 167.397 196.158 170.962 Q197.987 174.504 201.598 174.504 Q205.232 174.504 207.037 170.962 Q208.866 167.397 208.866 160.291 Q208.866 153.161 207.037 149.62 Q205.232 146.055 201.598 146.055 M201.598 142.351 Q207.408 142.351 210.463 146.958 Q213.542 151.541 213.542 160.291 Q213.542 169.018 210.463 173.624 Q207.408 178.208 201.598 178.208 Q195.787 178.208 192.709 173.624 Q189.653 169.018 189.653 160.291 Q189.653 151.541 192.709 146.958 Q195.787 142.351 201.598 142.351 Z" fill="#000000" fill-rule="nonzero" fill-opacity="1" /><path clip-path="url(#clip660)" d="M58.657 883.341 L77.5631 883.341 L77.5631 889.23 L28.3562 889.23 L28.3562 883.341 L33.7671 883.341 Q30.5842 881.495 29.0564 878.694 Q27.4968 875.862 27.4968 871.947 Q27.4968 865.454 32.6531 861.411 Q37.8093 857.337 46.212 857.337 Q54.6147 857.337 59.771 861.411 Q64.9272 865.454 64.9272 871.947 Q64.9272 875.862 63.3994 878.694 Q61.8398 881.495 58.657 883.341 M46.212 863.417 Q39.7508 863.417 36.0905 866.09 Q32.3984 868.732 32.3984 873.379 Q32.3984 878.026 36.0905 880.7 Q39.7508 883.341 46.212 883.341 Q52.6732 883.341 56.3653 880.7 Q60.0256 878.026 60.0256 873.379 Q60.0256 868.732 56.3653 866.09 Q52.6732 863.417 46.212 863.417 Z" fill="#000000" fill-rule="nonzero" fill-opacity="1" /><path clip-path="url(#clip660)" d="M43.5384 850.59 L43.5384 833.434 L48.7583 833.434 L48.7583 850.59 L43.5384 850.59 Z" fill="#000000" fill-rule="nonzero" fill-opacity="1" /><path clip-path="url(#clip660)" d="M28.3562 830.06 L28.3562 823.854 L58.275 812.714 L28.3562 801.574 L28.3562 795.367 L64.0042 808.735 L64.0042 816.692 L28.3562 830.06 Z" fill="#000000" fill-rule="nonzero" fill-opacity="1" /><path clip-path="url(#clip660)" d="M46.0847 771.082 Q46.0847 778.18 47.7079 780.917 Q49.3312 783.654 53.2461 783.654 Q56.3653 783.654 58.2114 781.617 Q60.0256 779.548 60.0256 776.015 Q60.0256 771.146 56.5881 768.218 Q53.1188 765.257 47.3897 765.257 L46.0847 765.257 L46.0847 771.082 M43.6657 759.401 L64.0042 759.401 L64.0042 765.257 L58.5933 765.257 Q61.8398 767.263 63.3994 770.255 Q64.9272 773.246 64.9272 777.575 Q64.9272 783.05 61.8716 786.296 Q58.7843 789.511 53.6281 789.511 Q47.6125 789.511 44.5569 785.5 Q41.5014 781.458 41.5014 773.469 L41.5014 765.257 L40.9285 765.257 Q36.8862 765.257 34.6901 767.931 Q32.4621 770.573 32.4621 775.379 Q32.4621 778.434 33.1941 781.331 Q33.9262 784.227 35.3903 786.901 L29.9795 786.901 Q28.7381 783.686 28.1334 780.662 Q27.4968 777.639 27.4968 774.774 Q27.4968 767.04 31.5072 763.22 Q35.5176 759.401 43.6657 759.401 Z" fill="#000000" fill-rule="nonzero" fill-opacity="1" /><path clip-path="url(#clip660)" d="M14.479 747.338 L14.479 741.482 L64.0042 741.482 L64.0042 747.338 L14.479 747.338 Z" fill="#000000" fill-rule="nonzero" fill-opacity="1" /><path clip-path="url(#clip660)" d="M49.9359 729.832 L28.3562 729.832 L28.3562 723.976 L49.7131 723.976 Q54.7739 723.976 57.3202 722.002 Q59.8346 720.029 59.8346 716.082 Q59.8346 711.34 56.8109 708.603 Q53.7872 705.834 48.5673 705.834 L28.3562 705.834 L28.3562 699.977 L64.0042 699.977 L64.0042 705.834 L58.5296 705.834 Q61.7762 707.966 63.3676 710.799 Q64.9272 713.6 64.9272 717.324 Q64.9272 723.467 61.1078 726.649 Q57.2883 729.832 49.9359 729.832 M27.4968 715.096 L27.4968 715.096 Z" fill="#000000" fill-rule="nonzero" fill-opacity="1" /><path clip-path="url(#clip660)" d="M44.7161 657.422 L47.5806 657.422 L47.5806 684.349 Q53.6281 683.967 56.8109 680.721 Q59.9619 677.443 59.9619 671.618 Q59.9619 668.244 59.1344 665.093 Q58.3069 661.91 56.6518 658.791 L62.1899 658.791 Q63.5267 661.942 64.227 665.252 Q64.9272 668.562 64.9272 671.968 Q64.9272 680.498 59.9619 685.495 Q54.9967 690.46 46.5303 690.46 Q37.7774 690.46 32.6531 685.75 Q27.4968 681.007 27.4968 672.987 Q27.4968 665.793 32.1438 661.624 Q36.7589 657.422 44.7161 657.422 M42.9973 663.279 Q38.1912 663.342 35.3266 665.984 Q32.4621 668.594 32.4621 672.923 Q32.4621 677.824 35.2312 680.785 Q38.0002 683.713 43.0292 684.158 L42.9973 663.279 Z" fill="#000000" fill-rule="nonzero" fill-opacity="1" /><path clip-path="url(#clip660)" d="M396.967 43.6931 L396.967 65.8515 L410.092 65.8515 Q416.695 65.8515 419.855 63.1374 Q423.055 60.3828 423.055 54.752 Q423.055 49.0808 419.855 46.4072 Q416.695 43.6931 410.092 43.6931 L396.967 43.6931 M396.967 18.8205 L396.967 37.0496 L409.079 37.0496 Q415.074 37.0496 417.991 34.8216 Q420.948 32.5531 420.948 27.935 Q420.948 23.3575 417.991 21.089 Q415.074 18.8205 409.079 18.8205 L396.967 18.8205 M388.784 12.096 L409.687 12.096 Q419.044 12.096 424.108 15.9849 Q429.172 19.8737 429.172 27.0438 Q429.172 32.5936 426.579 35.8748 Q423.986 39.156 418.963 39.9662 Q424.999 41.2625 428.321 45.3944 Q431.683 49.4858 431.683 55.6432 Q431.683 63.745 426.174 68.1605 Q420.665 72.576 410.497 72.576 L388.784 72.576 L388.784 12.096 Z" fill="#000000" fill-rule="nonzero" fill-opacity="1" /><path clip-path="url(#clip660)" d="M445.375 27.2059 L452.829 27.2059 L452.829 72.576 L445.375 72.576 L445.375 27.2059 M445.375 9.54393 L452.829 9.54393 L452.829 18.9825 L445.375 18.9825 L445.375 9.54393 Z" fill="#000000" fill-rule="nonzero" fill-opacity="1" /><path clip-path="url(#clip660)" d="M506.139 45.1919 L506.139 72.576 L498.685 72.576 L498.685 45.4349 Q498.685 38.994 496.174 35.7938 Q493.662 32.5936 488.639 32.5936 Q482.603 32.5936 479.119 36.4419 Q475.635 40.2903 475.635 46.9338 L475.635 72.576 L468.141 72.576 L468.141 27.2059 L475.635 27.2059 L475.635 34.2544 Q478.309 30.163 481.914 28.1376 Q485.56 26.1121 490.3 26.1121 Q498.118 26.1121 502.128 30.9732 Q506.139 35.7938 506.139 45.1919 Z" fill="#000000" fill-rule="nonzero" fill-opacity="1" /><path clip-path="url(#clip660)" d="M538.587 32.4315 Q532.591 32.4315 529.107 37.1306 Q525.624 41.7891 525.624 49.9314 Q525.624 58.0738 529.067 62.7728 Q532.551 67.4314 538.587 67.4314 Q544.541 67.4314 548.025 62.7323 Q551.509 58.0333 551.509 49.9314 Q551.509 41.8701 548.025 37.1711 Q544.541 32.4315 538.587 32.4315 M538.587 26.1121 Q548.309 26.1121 553.858 32.4315 Q559.408 38.7509 559.408 49.9314 Q559.408 61.0714 553.858 67.4314 Q548.309 73.7508 538.587 73.7508 Q528.824 73.7508 523.274 67.4314 Q517.765 61.0714 517.765 49.9314 Q517.765 38.7509 523.274 32.4315 Q528.824 26.1121 538.587 26.1121 Z" fill="#000000" fill-rule="nonzero" fill-opacity="1" /><path clip-path="url(#clip660)" d="M607.087 35.9153 Q609.882 30.8922 613.771 28.5022 Q617.66 26.1121 622.926 26.1121 Q630.015 26.1121 633.864 31.0947 Q637.712 36.0368 637.712 45.1919 L637.712 72.576 L630.218 72.576 L630.218 45.4349 Q630.218 38.913 627.909 35.7533 Q625.6 32.5936 620.86 32.5936 Q615.068 32.5936 611.705 36.4419 Q608.343 40.2903 608.343 46.9338 L608.343 72.576 L600.849 72.576 L600.849 45.4349 Q600.849 38.8725 598.54 35.7533 Q596.231 32.5936 591.41 32.5936 Q585.699 32.5936 582.336 36.4824 Q578.974 40.3308 578.974 46.9338 L578.974 72.576 L571.48 72.576 L571.48 27.2059 L578.974 27.2059 L578.974 34.2544 Q581.526 30.082 585.091 28.0971 Q588.656 26.1121 593.557 26.1121 Q598.499 26.1121 601.943 28.6237 Q605.426 31.1352 607.087 35.9153 Z" fill="#000000" fill-rule="nonzero" fill-opacity="1" /><path clip-path="url(#clip660)" d="M652.579 27.2059 L660.033 27.2059 L660.033 72.576 L652.579 72.576 L652.579 27.2059 M652.579 9.54393 L660.033 9.54393 L660.033 18.9825 L652.579 18.9825 L652.579 9.54393 Z" fill="#000000" fill-rule="nonzero" fill-opacity="1" /><path clip-path="url(#clip660)" d="M696.248 49.7694 Q687.214 49.7694 683.73 51.8354 Q680.247 53.9013 680.247 58.8839 Q680.247 62.8538 682.839 65.2034 Q685.472 67.5124 689.969 67.5124 Q696.167 67.5124 699.894 63.1374 Q703.661 58.7219 703.661 51.4303 L703.661 49.7694 L696.248 49.7694 M711.115 46.6907 L711.115 72.576 L703.661 72.576 L703.661 65.6895 Q701.109 69.8214 697.301 71.8063 Q693.493 73.7508 687.984 73.7508 Q681.016 73.7508 676.884 69.8619 Q672.793 65.9325 672.793 59.3701 Q672.793 51.7138 677.897 47.825 Q683.042 43.9361 693.21 43.9361 L703.661 43.9361 L703.661 43.2069 Q703.661 38.0623 700.258 35.2672 Q696.896 32.4315 690.779 32.4315 Q686.89 32.4315 683.204 33.3632 Q679.517 34.295 676.115 36.1584 L676.115 29.2718 Q680.206 27.692 684.054 26.9223 Q687.903 26.1121 691.549 26.1121 Q701.392 26.1121 706.253 31.2163 Q711.115 36.3204 711.115 46.6907 Z" fill="#000000" fill-rule="nonzero" fill-opacity="1" /><path clip-path="url(#clip660)" d="M726.467 9.54393 L733.921 9.54393 L733.921 72.576 L726.467 72.576 L726.467 9.54393 Z" fill="#000000" fill-rule="nonzero" fill-opacity="1" /><path clip-path="url(#clip660)" d="M783.261 14.324 L783.261 27.2059 L798.614 27.2059 L798.614 32.9987 L783.261 32.9987 L783.261 57.6282 Q783.261 63.1779 784.76 64.7578 Q786.299 66.3376 790.958 66.3376 L798.614 66.3376 L798.614 72.576 L790.958 72.576 Q782.329 72.576 779.048 69.3758 Q775.767 66.1351 775.767 57.6282 L775.767 32.9987 L770.298 32.9987 L770.298 27.2059 L775.767 27.2059 L775.767 14.324 L783.261 14.324 Z" fill="#000000" fill-rule="nonzero" fill-opacity="1" /><path clip-path="url(#clip660)" d="M847.225 48.0275 L847.225 51.6733 L812.954 51.6733 Q813.44 59.3701 817.572 63.421 Q821.745 67.4314 829.158 67.4314 Q833.452 67.4314 837.462 66.3781 Q841.513 65.3249 845.483 63.2184 L845.483 70.267 Q841.473 71.9684 837.26 72.8596 Q833.047 73.7508 828.712 73.7508 Q817.856 73.7508 811.496 67.4314 Q805.177 61.1119 805.177 50.3365 Q805.177 39.1965 811.172 32.6746 Q817.208 26.1121 827.416 26.1121 Q836.571 26.1121 841.878 32.0264 Q847.225 37.9003 847.225 48.0275 M839.771 45.84 Q839.69 39.7232 836.328 36.0774 Q833.006 32.4315 827.497 32.4315 Q821.259 32.4315 817.491 35.9558 Q813.764 39.4801 813.197 45.8805 L839.771 45.84 Z" fill="#000000" fill-rule="nonzero" fill-opacity="1" /><path clip-path="url(#clip660)" d="M888.382 28.5427 L888.382 35.5912 Q885.222 33.9709 881.82 33.1607 Q878.417 32.3505 874.771 32.3505 Q869.221 32.3505 866.426 34.0519 Q863.672 35.7533 863.672 39.156 Q863.672 41.7486 865.657 43.2475 Q867.641 44.7058 873.637 46.0426 L876.189 46.6097 Q884.129 48.3111 887.45 51.4303 Q890.813 54.509 890.813 60.0587 Q890.813 66.3781 885.79 70.0644 Q880.807 73.7508 872.057 73.7508 Q868.411 73.7508 864.441 73.0216 Q860.512 72.3329 856.137 70.9151 L856.137 63.2184 Q860.269 65.3654 864.279 66.4591 Q868.29 67.5124 872.219 67.5124 Q877.485 67.5124 880.321 65.73 Q883.156 63.9071 883.156 60.6258 Q883.156 57.5877 881.09 55.9673 Q879.065 54.3469 872.138 52.8481 L869.545 52.2405 Q862.618 50.7821 859.54 47.7845 Q856.461 44.7463 856.461 39.4801 Q856.461 33.0797 860.998 29.5959 Q865.535 26.1121 873.88 26.1121 Q878.012 26.1121 881.658 26.7198 Q885.303 27.3274 888.382 28.5427 Z" fill="#000000" fill-rule="nonzero" fill-opacity="1" /><path clip-path="url(#clip660)" d="M910.054 14.324 L910.054 27.2059 L925.407 27.2059 L925.407 32.9987 L910.054 32.9987 L910.054 57.6282 Q910.054 63.1779 911.553 64.7578 Q913.093 66.3376 917.751 66.3376 L925.407 66.3376 L925.407 72.576 L917.751 72.576 Q909.123 72.576 905.841 69.3758 Q902.56 66.1351 902.56 57.6282 L902.56 32.9987 L897.092 32.9987 L897.092 27.2059 L902.56 27.2059 L902.56 14.324 L910.054 14.324 Z" fill="#000000" fill-rule="nonzero" fill-opacity="1" /><path clip-path="url(#clip660)" d="M968.793 65.7705 L968.793 89.8329 L961.298 89.8329 L961.298 27.2059 L968.793 27.2059 L968.793 34.0924 Q971.142 30.0415 974.707 28.0971 Q978.312 26.1121 983.295 26.1121 Q991.559 26.1121 996.703 32.6746 Q1001.89 39.2371 1001.89 49.9314 Q1001.89 60.6258 996.703 67.1883 Q991.559 73.7508 983.295 73.7508 Q978.312 73.7508 974.707 71.8063 Q971.142 69.8214 968.793 65.7705 M994.151 49.9314 Q994.151 41.7081 990.748 37.0496 Q987.386 32.3505 981.472 32.3505 Q975.558 32.3505 972.155 37.0496 Q968.793 41.7081 968.793 49.9314 Q968.793 58.1548 972.155 62.8538 Q975.558 67.5124 981.472 67.5124 Q987.386 67.5124 990.748 62.8538 Q994.151 58.1548 994.151 49.9314 Z" fill="#000000" fill-rule="nonzero" fill-opacity="1" /><path clip-path="url(#clip660)" d="M1010.48 46.5287 L1032.31 46.5287 L1032.31 53.1722 L1010.48 53.1722 L1010.48 46.5287 Z" fill="#000000" fill-rule="nonzero" fill-opacity="1" /><path clip-path="url(#clip660)" d="M1036.6 27.2059 L1044.5 27.2059 L1058.68 65.2844 L1072.86 27.2059 L1080.76 27.2059 L1063.75 72.576 L1053.62 72.576 L1036.6 27.2059 Z" fill="#000000" fill-rule="nonzero" fill-opacity="1" /><path clip-path="url(#clip660)" d="M1111.67 49.7694 Q1102.63 49.7694 1099.15 51.8354 Q1095.67 53.9013 1095.67 58.8839 Q1095.67 62.8538 1098.26 65.2034 Q1100.89 67.5124 1105.39 67.5124 Q1111.59 67.5124 1115.31 63.1374 Q1119.08 58.7219 1119.08 51.4303 L1119.08 49.7694 L1111.67 49.7694 M1126.53 46.6907 L1126.53 72.576 L1119.08 72.576 L1119.08 65.6895 Q1116.53 69.8214 1112.72 71.8063 Q1108.91 73.7508 1103.4 73.7508 Q1096.44 73.7508 1092.3 69.8619 Q1088.21 65.9325 1088.21 59.3701 Q1088.21 51.7138 1093.32 47.825 Q1098.46 43.9361 1108.63 43.9361 L1119.08 43.9361 L1119.08 43.2069 Q1119.08 38.0623 1115.68 35.2672 Q1112.32 32.4315 1106.2 32.4315 Q1102.31 32.4315 1098.62 33.3632 Q1094.94 34.295 1091.53 36.1584 L1091.53 29.2718 Q1095.63 27.692 1099.47 26.9223 Q1103.32 26.1121 1106.97 26.1121 Q1116.81 26.1121 1121.67 31.2163 Q1126.53 36.3204 1126.53 46.6907 Z" fill="#000000" fill-rule="nonzero" fill-opacity="1" /><path clip-path="url(#clip660)" d="M1141.89 9.54393 L1149.34 9.54393 L1149.34 72.576 L1141.89 72.576 L1141.89 9.54393 Z" fill="#000000" fill-rule="nonzero" fill-opacity="1" /><path clip-path="url(#clip660)" d="M1164.17 54.671 L1164.17 27.2059 L1171.62 27.2059 L1171.62 54.3874 Q1171.62 60.8284 1174.13 64.0691 Q1176.64 67.2693 1181.67 67.2693 Q1187.7 67.2693 1191.19 63.421 Q1194.71 59.5726 1194.71 52.9291 L1194.71 27.2059 L1202.17 27.2059 L1202.17 72.576 L1194.71 72.576 L1194.71 65.6084 Q1192 69.7404 1188.39 71.7658 Q1184.83 73.7508 1180.09 73.7508 Q1172.27 73.7508 1168.22 68.8897 Q1164.17 64.0286 1164.17 54.671 M1182.92 26.1121 L1182.92 26.1121 Z" fill="#000000" fill-rule="nonzero" fill-opacity="1" /><path clip-path="url(#clip660)" d="M1256.33 48.0275 L1256.33 51.6733 L1222.06 51.6733 Q1222.54 59.3701 1226.67 63.421 Q1230.85 67.4314 1238.26 67.4314 Q1242.55 67.4314 1246.56 66.3781 Q1250.61 65.3249 1254.58 63.2184 L1254.58 70.267 Q1250.57 71.9684 1246.36 72.8596 Q1242.15 73.7508 1237.81 73.7508 Q1226.96 73.7508 1220.6 67.4314 Q1214.28 61.1119 1214.28 50.3365 Q1214.28 39.1965 1220.27 32.6746 Q1226.31 26.1121 1236.52 26.1121 Q1245.67 26.1121 1250.98 32.0264 Q1256.33 37.9003 1256.33 48.0275 M1248.87 45.84 Q1248.79 39.7232 1245.43 36.0774 Q1242.11 32.4315 1236.6 32.4315 Q1230.36 32.4315 1226.59 35.9558 Q1222.87 39.4801 1222.3 45.8805 L1248.87 45.84 Z" fill="#000000" fill-rule="nonzero" fill-opacity="1" /><path clip-path="url(#clip660)" d="M1317.9 9.54393 L1317.9 15.7418 L1310.77 15.7418 Q1306.76 15.7418 1305.18 17.3622 Q1303.64 18.9825 1303.64 23.1955 L1303.64 27.2059 L1315.91 27.2059 L1315.91 32.9987 L1303.64 32.9987 L1303.64 72.576 L1296.15 72.576 L1296.15 32.9987 L1289.02 32.9987 L1289.02 27.2059 L1296.15 27.2059 L1296.15 24.0462 Q1296.15 16.471 1299.67 13.0277 Q1303.19 9.54393 1310.85 9.54393 L1317.9 9.54393 Z" fill="#000000" fill-rule="nonzero" fill-opacity="1" /><path clip-path="url(#clip660)" d="M1323.37 54.671 L1323.37 27.2059 L1330.82 27.2059 L1330.82 54.3874 Q1330.82 60.8284 1333.33 64.0691 Q1335.84 67.2693 1340.87 67.2693 Q1346.9 67.2693 1350.39 63.421 Q1353.91 59.5726 1353.91 52.9291 L1353.91 27.2059 L1361.37 27.2059 L1361.37 72.576 L1353.91 72.576 L1353.91 65.6084 Q1351.2 69.7404 1347.59 71.7658 Q1344.03 73.7508 1339.29 73.7508 Q1331.47 73.7508 1327.42 68.8897 Q1323.37 64.0286 1323.37 54.671 M1342.12 26.1121 L1342.12 26.1121 Z" fill="#000000" fill-rule="nonzero" fill-opacity="1" /><path clip-path="url(#clip660)" d="M1414.43 45.1919 L1414.43 72.576 L1406.98 72.576 L1406.98 45.4349 Q1406.98 38.994 1404.47 35.7938 Q1401.96 32.5936 1396.93 32.5936 Q1390.9 32.5936 1387.41 36.4419 Q1383.93 40.2903 1383.93 46.9338 L1383.93 72.576 L1376.44 72.576 L1376.44 27.2059 L1383.93 27.2059 L1383.93 34.2544 Q1386.6 30.163 1390.21 28.1376 Q1393.85 26.1121 1398.59 26.1121 Q1406.41 26.1121 1410.42 30.9732 Q1414.43 35.7938 1414.43 45.1919 Z" fill="#000000" fill-rule="nonzero" fill-opacity="1" /><path clip-path="url(#clip660)" d="M1461.95 28.9478 L1461.95 35.9153 Q1458.79 34.1734 1455.59 33.3227 Q1452.43 32.4315 1449.19 32.4315 Q1441.94 32.4315 1437.93 37.0496 Q1433.92 41.6271 1433.92 49.9314 Q1433.92 58.2358 1437.93 62.8538 Q1441.94 67.4314 1449.19 67.4314 Q1452.43 67.4314 1455.59 66.5807 Q1458.79 65.6895 1461.95 63.9476 L1461.95 70.8341 Q1458.83 72.2924 1455.47 73.0216 Q1452.15 73.7508 1448.38 73.7508 Q1438.13 73.7508 1432.09 67.3098 Q1426.06 60.8689 1426.06 49.9314 Q1426.06 38.832 1432.13 32.472 Q1438.25 26.1121 1448.87 26.1121 Q1452.31 26.1121 1455.59 26.8413 Q1458.87 27.5299 1461.95 28.9478 Z" fill="#000000" fill-rule="nonzero" fill-opacity="1" /><path clip-path="url(#clip660)" d="M1482.29 14.324 L1482.29 27.2059 L1497.64 27.2059 L1497.64 32.9987 L1482.29 32.9987 L1482.29 57.6282 Q1482.29 63.1779 1483.78 64.7578 Q1485.32 66.3376 1489.98 66.3376 L1497.64 66.3376 L1497.64 72.576 L1489.98 72.576 Q1481.35 72.576 1478.07 69.3758 Q1474.79 66.1351 1474.79 57.6282 L1474.79 32.9987 L1469.32 32.9987 L1469.32 27.2059 L1474.79 27.2059 L1474.79 14.324 L1482.29 14.324 Z" fill="#000000" fill-rule="nonzero" fill-opacity="1" /><path clip-path="url(#clip660)" d="M1507.44 27.2059 L1514.89 27.2059 L1514.89 72.576 L1507.44 72.576 L1507.44 27.2059 M1507.44 9.54393 L1514.89 9.54393 L1514.89 18.9825 L1507.44 18.9825 L1507.44 9.54393 Z" fill="#000000" fill-rule="nonzero" fill-opacity="1" /><path clip-path="url(#clip660)" d="M1548.07 32.4315 Q1542.08 32.4315 1538.59 37.1306 Q1535.11 41.7891 1535.11 49.9314 Q1535.11 58.0738 1538.55 62.7728 Q1542.04 67.4314 1548.07 67.4314 Q1554.03 67.4314 1557.51 62.7323 Q1560.99 58.0333 1560.99 49.9314 Q1560.99 41.8701 1557.51 37.1711 Q1554.03 32.4315 1548.07 32.4315 M1548.07 26.1121 Q1557.79 26.1121 1563.34 32.4315 Q1568.89 38.7509 1568.89 49.9314 Q1568.89 61.0714 1563.34 67.4314 Q1557.79 73.7508 1548.07 73.7508 Q1538.31 73.7508 1532.76 67.4314 Q1527.25 61.0714 1527.25 49.9314 Q1527.25 38.7509 1532.76 32.4315 Q1538.31 26.1121 1548.07 26.1121 Z" fill="#000000" fill-rule="nonzero" fill-opacity="1" /><path clip-path="url(#clip660)" d="M1618.96 45.1919 L1618.96 72.576 L1611.51 72.576 L1611.51 45.4349 Q1611.51 38.994 1609 35.7938 Q1606.49 32.5936 1601.46 32.5936 Q1595.43 32.5936 1591.94 36.4419 Q1588.46 40.2903 1588.46 46.9338 L1588.46 72.576 L1580.97 72.576 L1580.97 27.2059 L1588.46 27.2059 L1588.46 34.2544 Q1591.13 30.163 1594.74 28.1376 Q1598.38 26.1121 1603.12 26.1121 Q1610.94 26.1121 1614.95 30.9732 Q1618.96 35.7938 1618.96 45.1919 Z" fill="#000000" fill-rule="nonzero" fill-opacity="1" /><path clip-path="url(#clip660)" d="M1678.11 9.62495 Q1672.68 18.942 1670.04 28.0566 Q1667.41 37.1711 1667.41 46.5287 Q1667.41 55.8863 1670.04 65.0818 Q1672.72 74.2369 1678.11 83.5134 L1671.62 83.5134 Q1665.55 73.9938 1662.51 64.7983 Q1659.51 55.6027 1659.51 46.5287 Q1659.51 37.4952 1662.51 28.3401 Q1665.51 19.1851 1671.62 9.62495 L1678.11 9.62495 Z" fill="#000000" fill-rule="nonzero" fill-opacity="1" /><path clip-path="url(#clip660)" d="M1730.28 45.1919 L1730.28 72.576 L1722.83 72.576 L1722.83 45.4349 Q1722.83 38.994 1720.32 35.7938 Q1717.8 32.5936 1712.78 32.5936 Q1706.75 32.5936 1703.26 36.4419 Q1699.78 40.2903 1699.78 46.9338 L1699.78 72.576 L1692.28 72.576 L1692.28 27.2059 L1699.78 27.2059 L1699.78 34.2544 Q1702.45 30.163 1706.06 28.1376 Q1709.7 26.1121 1714.44 26.1121 Q1722.26 26.1121 1726.27 30.9732 Q1730.28 35.7938 1730.28 45.1919 Z" fill="#000000" fill-rule="nonzero" fill-opacity="1" /><path clip-path="url(#clip660)" d="M1746.12 34.9026 L1798.05 34.9026 L1798.05 41.7081 L1746.12 41.7081 L1746.12 34.9026 M1746.12 51.4303 L1798.05 51.4303 L1798.05 58.3168 L1746.12 58.3168 L1746.12 51.4303 Z" fill="#000000" fill-rule="nonzero" fill-opacity="1" /><path clip-path="url(#clip660)" d="M1822.76 65.6895 L1851.32 65.6895 L1851.32 72.576 L1812.92 72.576 L1812.92 65.6895 Q1817.58 60.8689 1825.6 52.7671 Q1833.66 44.6248 1835.73 42.2752 Q1839.66 37.8598 1841.2 34.8216 Q1842.78 31.7429 1842.78 28.7857 Q1842.78 23.9651 1839.37 20.927 Q1836.01 17.8888 1830.58 17.8888 Q1826.73 17.8888 1822.44 19.2256 Q1818.19 20.5624 1813.33 23.2765 L1813.33 15.0127 Q1818.27 13.0277 1822.56 12.015 Q1826.86 11.0023 1830.42 11.0023 Q1839.82 11.0023 1845.41 15.7013 Q1851 20.4004 1851 28.2591 Q1851 31.9859 1849.58 35.3482 Q1848.2 38.6699 1844.52 43.2069 Q1843.5 44.3817 1838.08 50.0125 Q1832.65 55.6027 1822.76 65.6895 Z" fill="#000000" fill-rule="nonzero" fill-opacity="1" /><path clip-path="url(#clip660)" d="M1886 17.4837 Q1879.68 17.4837 1876.48 23.7221 Q1873.32 29.92 1873.32 42.3968 Q1873.32 54.833 1876.48 61.0714 Q1879.68 67.2693 1886 67.2693 Q1892.36 67.2693 1895.52 61.0714 Q1898.72 54.833 1898.72 42.3968 Q1898.72 29.92 1895.52 23.7221 Q1892.36 17.4837 1886 17.4837 M1886 11.0023 Q1896.17 11.0023 1901.51 19.0636 Q1906.9 27.0843 1906.9 42.3968 Q1906.9 57.6687 1901.51 65.73 Q1896.17 73.7508 1886 73.7508 Q1875.83 73.7508 1870.44 65.73 Q1865.1 57.6687 1865.1 42.3968 Q1865.1 27.0843 1870.44 19.0636 Q1875.83 11.0023 1886 11.0023 Z" fill="#000000" fill-rule="nonzero" fill-opacity="1" /><path clip-path="url(#clip660)" d="M1922.13 62.2867 L1930.68 62.2867 L1930.68 69.2543 L1924.04 82.2172 L1918.81 82.2172 L1922.13 69.2543 L1922.13 62.2867 Z" fill="#000000" fill-rule="nonzero" fill-opacity="1" /><path clip-path="url(#clip660)" d="M1972.69 9.54393 L1980.18 9.54393 L1980.18 46.7717 L2002.42 27.2059 L2011.94 27.2059 L1987.88 48.4326 L2012.95 72.576 L2003.23 72.576 L1980.18 50.4176 L1980.18 72.576 L1972.69 72.576 L1972.69 9.54393 Z" fill="#000000" fill-rule="nonzero" fill-opacity="1" /><path clip-path="url(#clip660)" d="M2021.99 34.9026 L2073.92 34.9026 L2073.92 41.7081 L2021.99 41.7081 L2021.99 34.9026 M2021.99 51.4303 L2073.92 51.4303 L2073.92 58.3168 L2021.99 58.3168 L2021.99 51.4303 Z" fill="#000000" fill-rule="nonzero" fill-opacity="1" /><path clip-path="url(#clip660)" d="M2093 65.6895 L2106.37 65.6895 L2106.37 19.5497 L2091.82 22.4663 L2091.82 15.0127 L2106.29 12.096 L2114.47 12.096 L2114.47 65.6895 L2127.84 65.6895 L2127.84 72.576 L2093 72.576 L2093 65.6895 Z" fill="#000000" fill-rule="nonzero" fill-opacity="1" /><path clip-path="url(#clip660)" d="M2166.85 19.2256 L2146.19 51.5113 L2166.85 51.5113 L2166.85 19.2256 M2164.7 12.096 L2174.99 12.096 L2174.99 51.5113 L2183.62 51.5113 L2183.62 58.3168 L2174.99 58.3168 L2174.99 72.576 L2166.85 72.576 L2166.85 58.3168 L2139.54 58.3168 L2139.54 50.4176 L2164.7 12.096 Z" fill="#000000" fill-rule="nonzero" fill-opacity="1" /><path clip-path="url(#clip660)" d="M2194.92 9.62495 L2201.4 9.62495 Q2207.48 19.1851 2210.48 28.3401 Q2213.51 37.4952 2213.51 46.5287 Q2213.51 55.6027 2210.48 64.7983 Q2207.48 73.9938 2201.4 83.5134 L2194.92 83.5134 Q2200.31 74.2369 2202.94 65.0818 Q2205.61 55.8863 2205.61 46.5287 Q2205.61 37.1711 2202.94 28.0566 Q2200.31 18.942 2194.92 9.62495 Z" fill="#000000" fill-rule="nonzero" fill-opacity="1" /><polyline clip-path="url(#clip662)" style="stroke:#000000; stroke-linecap:round; stroke-linejoin:round; stroke-width:8; stroke-opacity:1; fill:none" points="309.067,1386.4 313.043,1386.4 317.02,1386.4 320.996,1386.4 324.972,1386.4 328.948,1386.4 332.925,1386.4 336.901,1386.4 340.877,1386.4 344.853,1386.4 348.83,1386.4 352.806,1386.4 356.782,1386.4 360.759,1386.4 364.735,1386.4 368.711,1386.4 372.687,1386.4 376.664,1386.4 380.64,1386.4 384.616,1386.4 388.593,1386.4 392.569,1386.4 396.545,1386.4 400.521,1386.4 404.498,1386.4 408.474,1386.4 412.45,1386.4 416.427,1386.4 420.403,1386.4 424.379,1386.4 428.355,1386.4 432.332,1386.4 436.308,1386.4 440.284,1386.4 444.26,1386.4 448.237,1386.4 452.213,1386.4 456.189,1386.4 460.166,1386.4 464.142,1386.4 468.118,1386.4 472.094,1386.4 476.071,1386.4 480.047,1386.4 484.023,1386.4 488,1386.4 491.976,1386.4 495.952,1386.4 499.928,1386.4 503.905,1386.4 507.881,1386.4 511.857,1386.4 515.834,1386.4 519.81,1386.4 523.786,1386.4 527.762,1386.4 531.739,1386.4 535.715,1386.4 539.691,1386.4 543.668,1386.4 547.644,1386.4 551.62,1386.4 555.596,1386.4 559.573,1386.4 563.549,1386.4 567.525,1386.4 571.501,1386.4 575.478,1386.4 579.454,1386.4 583.43,1386.4 587.407,1386.4 591.383,1386.4 595.359,1386.4 599.335,1386.4 603.312,1386.4 607.288,1386.4 611.264,1386.4 615.241,1386.4 619.217,1386.4 623.193,1386.4 627.169,1386.4 631.146,1386.4 635.122,1386.4 639.098,1386.4 643.075,1386.4 647.051,1386.4 651.027,1386.4 655.003,1386.4 658.98,1386.4 662.956,1386.4 666.932,1386.4 670.908,1386.39 674.885,1386.39 678.861,1386.39 682.837,1386.39 686.814,1386.39 690.79,1386.39 694.766,1386.39 698.742,1386.39 702.719,1386.39 706.695,1386.39 710.671,1386.39 714.648,1386.39 718.624,1386.39 722.6,1386.39 726.576,1386.39 730.553,1386.39 734.529,1386.39 738.505,1386.39 742.482,1386.39 746.458,1386.39 750.434,1386.39 754.41,1386.39 758.387,1386.38 762.363,1386.38 766.339,1386.38 770.316,1386.38 774.292,1386.38 778.268,1386.38 782.244,1386.37 786.221,1386.37 790.197,1386.37 794.173,1386.37 798.149,1386.36 802.126,1386.36 806.102,1386.36 810.078,1386.35 814.055,1386.35 818.031,1386.35 822.007,1386.34 825.983,1386.33 829.96,1386.33 833.936,1386.32 837.912,1386.32 841.889,1386.31 845.865,1386.3 849.841,1386.29 853.817,1386.28 857.794,1386.27 861.77,1386.26 865.746,1386.25 869.723,1386.23 873.699,1386.22 877.675,1386.21 881.651,1386.19 885.628,1386.17 889.604,1386.15 893.58,1386.13 897.556,1386.11 901.533,1386.09 905.509,1386.06 909.485,1386.04 913.462,1386.01 917.438,1385.98 921.414,1385.94 925.39,1385.91 929.367,1385.87 933.343,1385.83 937.319,1385.79 941.296,1385.74 945.272,1385.16 949.248,1385.14 953.224,1385.12 957.201,1385.08 961.177,1385.05 965.153,1385.01 969.13,1384.96 973.106,1384.9 977.082,1384.85 981.058,1384.78 985.035,1384.71 989.011,1384.63 992.987,1384.55 996.964,1384.46 1000.94,1384.36 1004.92,1384.26 1008.89,1384.14 1012.87,1384.02 1016.84,1383.89 1020.82,1381.87 1024.8,1381.83 1028.77,1381.77 1032.75,1381.69 1036.73,1381.6 1040.7,1381.5 1044.68,1381.38 1048.66,1381.25 1052.63,1381.1 1056.61,1380.93 1060.58,1380.75 1064.56,1380.56 1068.54,1380.35 1072.51,1380.12 1076.49,1379.87 1080.47,1379.61 1084.44,1374.6 1088.42,1374.52 1092.39,1374.42 1096.37,1374.29 1100.35,1374.13 1104.32,1373.94 1108.3,1373.72 1112.28,1373.47 1116.25,1373.19 1120.23,1372.89 1124.2,1372.55 1128.18,1372.17 1132.16,1371.77 1136.13,1371.34 1140.11,1370.87 1144.09,1360.73 1148.06,1360.62 1152.04,1360.46 1156.01,1360.24 1159.99,1359.98 1163.97,1359.66 1167.94,1359.3 1171.92,1358.88 1175.9,1358.41 1179.87,1357.89 1183.85,1357.32 1187.82,1356.7 1191.8,1356.02 1195.78,1355.29 1199.75,1337.07 1203.73,1336.93 1207.71,1336.7 1211.68,1336.39 1215.66,1336.01 1219.64,1335.55 1223.61,1335.01 1227.59,1334.4 1231.56,1333.7 1235.54,1332.93 1239.52,1332.07 1243.49,1331.14 1247.47,1330.13 1251.45,1299.87 1255.42,1299.74 1259.4,1299.5 1263.37,1299.14 1267.35,1298.68 1271.33,1298.11 1275.3,1297.43 1279.28,1296.64 1283.26,1295.74 1287.23,1294.72 1291.21,1293.6 1295.18,1292.37 1299.16,1291.03 1303.14,1244.98 1307.11,1244.84 1311.09,1244.56 1315.07,1244.13 1319.04,1243.56 1323.02,1242.85 1326.99,1242 1330.97,1241 1334.95,1239.87 1338.92,1238.59 1342.9,1237.17 1346.88,1235.61 1350.85,1168.43 1354.83,1168.41 1358.81,1168.22 1362.78,1167.86 1366.76,1167.33 1370.73,1166.62 1374.71,1165.75 1378.69,1164.71 1382.66,1163.49 1386.64,1162.1 1390.62,1160.55 1394.59,1158.82 1398.57,1066.67 1402.54,1066.77 1406.52,1066.68 1410.5,1066.4 1414.47,1065.93 1418.45,1065.26 1422.43,1064.41 1426.4,1063.37 1430.38,1062.13 1434.35,1060.71 1438.33,1059.1 1442.31,1057.3 1446.28,937.317 1450.26,937.51 1454.24,937.508 1458.21,937.311 1462.19,936.92 1466.16,936.333 1470.14,935.551 1474.12,934.573 1478.09,933.401 1482.07,932.034 1486.05,930.473 1490.02,928.718 1494,779.562 1497.97,779.803 1501.95,779.866 1505.93,779.75 1509.9,779.454 1513.88,778.979 1517.86,778.323 1521.83,777.488 1525.81,776.472 1529.79,775.277 1533.76,773.902 1537.74,772.349 1541.71,594.62 1545.69,594.853 1549.67,594.946 1553.64,594.9 1557.62,594.712 1561.6,594.383 1565.57,593.912 1569.55,593.299 1573.52,592.545 1577.5,591.648 1581.48,590.61 1585.45,589.431 1589.43,386.111 1593.41,386.269 1597.38,386.348 1601.36,386.348 1605.33,386.268 1609.31,386.108 1613.29,385.868 1617.26,385.548 1621.24,385.146 1625.22,384.665 1629.19,384.102 1633.17,160.256 1637.14,160.256 1641.12,160.256 1645.1,160.256 1649.07,160.256 1653.05,160.256 1657.03,160.256 1661,160.256 1664.98,160.256 1668.95,160.256 1672.93,160.256 1676.91,160.256 1680.88,160.256 1684.86,160.256 1688.84,160.256 1692.81,160.256 1696.79,160.256 1700.77,160.256 1704.74,160.256 1708.72,160.256 1712.69,160.256 1716.67,160.256 1720.65,160.256 1724.62,160.256 1728.6,393.494 1732.58,395.059 1736.55,396.548 1740.53,397.959 1744.5,399.289 1748.48,400.536 1752.46,401.698 1756.43,402.774 1760.41,403.76 1764.39,404.655 1768.36,405.458 1772.34,406.165 1776.31,624.902 1780.29,628.153 1784.27,631.259 1788.24,634.216 1792.22,637.018 1796.2,639.662 1800.17,642.143 1804.15,644.456 1808.12,646.597 1812.1,648.562 1816.08,650.347 1820.05,651.948 1824.03,653.36 1828.01,845.519 1831.98,850.157 1835.96,854.598 1839.93,858.835 1843.91,862.862 1847.89,866.672 1851.86,870.261 1855.84,873.62 1859.82,876.745 1863.79,879.629 1867.77,882.267 1871.75,884.652 1875.72,886.78 1879.7,1038.19 1883.67,1043.76 1887.65,1049.11 1891.63,1054.24 1895.6,1059.14 1899.58,1063.81 1903.56,1068.24 1907.53,1072.42 1911.51,1076.35 1915.48,1080.01 1919.46,1083.42 1923.44,1086.55 1927.41,1089.4 1931.39,1091.97 1935.37,1094.24 1939.34,1199.73 1943.32,1205.1 1947.29,1210.26 1951.27,1215.23 1955.25,1219.98 1959.22,1224.52 1963.2,1228.84 1967.18,1232.95 1971.15,1236.83 1975.13,1240.48 1979.1,1243.9 1983.08,1247.09 1987.06,1250.03 1991.03,1252.74 1995.01,1255.2 1998.99,1257.42 2002.96,1259.38 2006.94,1314.53 2010.92,1318.53 2014.89,1322.39 2018.87,1326.1 2022.84,1329.67 2026.82,1333.1 2030.8,1336.39 2034.77,1339.54 2038.75,1342.55 2042.73,1345.43 2046.7,1348.18 2050.68,1350.8 2054.65,1353.29 2058.63,1355.66 2062.61,1357.91 2066.58,1360.04 2070.56,1362.06 2074.54,1363.97 2078.51,1365.76 2082.49,1367.46 2086.46,1369.05 2090.44,1370.54 2094.42,1371.93 2098.39,1373.24 2102.37,1374.46 2106.35,1375.59 2110.32,1376.64 2114.3,1377.61 2118.27,1378.51 2122.25,1379.34 2126.23,1380.1 2130.2,1380.8 2134.18,1381.44 2138.16,1382.02 2142.13,1382.55 2146.11,1383.03 2150.08,1383.46 2154.06,1383.85 2158.04,1384.19 2162.01,1384.5 2165.99,1384.78 2169.97,1385.02 2173.94,1385.23 2177.92,1385.42 2181.9,1385.58 2185.87,1385.72 2189.85,1385.84 2193.82,1385.95 2197.8,1386.03 2201.78,1386.11 2205.75,1386.17 2209.73,1386.22 2213.71,1386.26 2217.68,1386.29 2221.66,1386.32 2225.63,1386.34 2229.61,1386.35 2233.59,1386.37 2237.56,1386.38 2241.54,1386.38 2245.52,1386.39 2249.49,1386.39 2253.47,1386.39 2257.44,1386.39 2261.42,1386.39 2265.4,1386.4 2269.37,1386.4 2273.35,1386.4 2277.33,1386.4 2281.3,1386.4 2285.28,1386.4 2289.25,1386.4 2293.23,1386.4 "/>
<polyline clip-path="url(#clip662)" style="stroke:#000000; stroke-linecap:round; stroke-linejoin:round; stroke-width:8; stroke-opacity:1; fill:none" stroke-dasharray="32, 20" points="-1853.67,1325.09 4455.97,1325.09 "/>
</svg>
